<svg width="454" height="354" viewBox="0 0 454 354" fill="none" xmlns="http://www.w3.org/2000/svg">
<g filter="url(#filter0_d_1672_6783)">
<rect x="20" y="20" width="373.33" height="273.48" rx="20" fill="url(#paint0_linear_1672_6783)" shape-rendering="crispEdges"/>
<rect x="21" y="21" width="371.33" height="271.48" rx="20" fill="white"/>
<g filter="url(#filter1_d_1672_6783)">
<rect x="64.1548" y="47" width="285" height="162" rx="15" fill="#D9D9D9"/>
</g>
<path d="M111.94 264V248.468H115.394V264H111.94ZM114.602 264V260.964H122.28V264H114.602ZM129.072 264.242C127.914 264.242 126.88 264.007 125.97 263.538C125.076 263.054 124.372 262.387 123.858 261.536C123.345 260.685 123.088 259.725 123.088 258.654C123.088 257.583 123.338 256.63 123.836 255.794C124.35 254.943 125.039 254.276 125.904 253.792C126.77 253.308 127.745 253.066 128.83 253.066C129.886 253.066 130.818 253.293 131.624 253.748C132.431 254.203 133.062 254.833 133.516 255.64C133.986 256.447 134.22 257.371 134.22 258.412C134.22 258.603 134.206 258.808 134.176 259.028C134.162 259.233 134.125 259.475 134.066 259.754L124.848 259.776V257.466L132.636 257.444L131.184 258.412C131.17 257.796 131.074 257.29 130.898 256.894C130.722 256.483 130.458 256.175 130.106 255.97C129.769 255.75 129.351 255.64 128.852 255.64C128.324 255.64 127.862 255.765 127.466 256.014C127.085 256.249 126.784 256.586 126.564 257.026C126.359 257.466 126.256 258.001 126.256 258.632C126.256 259.263 126.366 259.805 126.586 260.26C126.821 260.7 127.144 261.045 127.554 261.294C127.98 261.529 128.478 261.646 129.05 261.646C129.578 261.646 130.055 261.558 130.48 261.382C130.906 261.191 131.28 260.913 131.602 260.546L133.45 262.394C132.922 263.01 132.284 263.472 131.536 263.78C130.788 264.088 129.967 264.242 129.072 264.242ZM139.039 264L134.507 253.308H138.137L141.217 262.218H139.633L142.713 253.308H146.277L141.745 263.978L139.039 264ZM152.469 264.242C151.31 264.242 150.276 264.007 149.367 263.538C148.472 263.054 147.768 262.387 147.255 261.536C146.742 260.685 146.485 259.725 146.485 258.654C146.485 257.583 146.734 256.63 147.233 255.794C147.746 254.943 148.436 254.276 149.301 253.792C150.166 253.308 151.142 253.066 152.227 253.066C153.283 253.066 154.214 253.293 155.021 253.748C155.828 254.203 156.458 254.833 156.913 255.64C157.382 256.447 157.617 257.371 157.617 258.412C157.617 258.603 157.602 258.808 157.573 259.028C157.558 259.233 157.522 259.475 157.463 259.754L148.245 259.776V257.466L156.033 257.444L154.581 258.412C154.566 257.796 154.471 257.29 154.295 256.894C154.119 256.483 153.855 256.175 153.503 255.97C153.166 255.75 152.748 255.64 152.249 255.64C151.721 255.64 151.259 255.765 150.863 256.014C150.482 256.249 150.181 256.586 149.961 257.026C149.756 257.466 149.653 258.001 149.653 258.632C149.653 259.263 149.763 259.805 149.983 260.26C150.218 260.7 150.54 261.045 150.951 261.294C151.376 261.529 151.875 261.646 152.447 261.646C152.975 261.646 153.452 261.558 153.877 261.382C154.302 261.191 154.676 260.913 154.999 260.546L156.847 262.394C156.319 263.01 155.681 263.472 154.933 263.78C154.185 264.088 153.364 264.242 152.469 264.242ZM159.242 264V253.308H162.608V264H159.242ZM162.608 258.126L161.2 257.026C161.478 255.779 161.948 254.811 162.608 254.122C163.268 253.433 164.184 253.088 165.358 253.088C165.871 253.088 166.318 253.169 166.7 253.33C167.096 253.477 167.44 253.711 167.734 254.034L165.732 256.564C165.585 256.403 165.402 256.278 165.182 256.19C164.962 256.102 164.712 256.058 164.434 256.058C163.876 256.058 163.429 256.234 163.092 256.586C162.769 256.923 162.608 257.437 162.608 258.126ZM172.796 264.22C171.813 264.22 170.933 263.978 170.156 263.494C169.393 263.01 168.784 262.35 168.33 261.514C167.89 260.678 167.67 259.725 167.67 258.654C167.67 257.583 167.89 256.63 168.33 255.794C168.784 254.958 169.393 254.298 170.156 253.814C170.933 253.33 171.813 253.088 172.796 253.088C173.514 253.088 174.16 253.227 174.732 253.506C175.318 253.785 175.795 254.173 176.162 254.672C176.528 255.156 176.734 255.713 176.778 256.344V260.964C176.734 261.595 176.528 262.159 176.162 262.658C175.81 263.142 175.34 263.523 174.754 263.802C174.167 264.081 173.514 264.22 172.796 264.22ZM173.478 261.184C174.196 261.184 174.776 260.949 175.216 260.48C175.656 259.996 175.876 259.387 175.876 258.654C175.876 258.155 175.773 257.715 175.568 257.334C175.377 256.953 175.098 256.659 174.732 256.454C174.38 256.234 173.969 256.124 173.5 256.124C173.03 256.124 172.612 256.234 172.246 256.454C171.894 256.659 171.608 256.953 171.388 257.334C171.182 257.715 171.08 258.155 171.08 258.654C171.08 259.138 171.182 259.571 171.388 259.952C171.593 260.333 171.879 260.634 172.246 260.854C172.612 261.074 173.023 261.184 173.478 261.184ZM175.744 264V261.118L176.25 258.522L175.744 255.926V253.308H179.044V264H175.744ZM185.946 268.796C184.772 268.796 183.738 268.591 182.844 268.18C181.964 267.784 181.267 267.219 180.754 266.486L182.822 264.418C183.203 264.873 183.628 265.217 184.098 265.452C184.582 265.687 185.161 265.804 185.836 265.804C186.672 265.804 187.324 265.599 187.794 265.188C188.278 264.777 188.52 264.198 188.52 263.45V260.722L189.092 258.39L188.586 256.058V253.308H191.886V263.362C191.886 264.462 191.629 265.415 191.116 266.222C190.602 267.029 189.898 267.659 189.004 268.114C188.109 268.569 187.09 268.796 185.946 268.796ZM185.792 263.67C184.809 263.67 183.936 263.435 183.174 262.966C182.411 262.497 181.81 261.859 181.37 261.052C180.93 260.245 180.71 259.351 180.71 258.368C180.71 257.371 180.93 256.476 181.37 255.684C181.81 254.877 182.411 254.247 183.174 253.792C183.936 253.323 184.809 253.088 185.792 253.088C186.525 253.088 187.178 253.227 187.75 253.506C188.336 253.77 188.806 254.151 189.158 254.65C189.524 255.134 189.73 255.699 189.774 256.344V260.414C189.73 261.045 189.524 261.609 189.158 262.108C188.806 262.592 188.336 262.973 187.75 263.252C187.163 263.531 186.51 263.67 185.792 263.67ZM186.43 260.678C186.899 260.678 187.302 260.575 187.64 260.37C187.992 260.165 188.256 259.893 188.432 259.556C188.622 259.204 188.718 258.808 188.718 258.368C188.718 257.928 188.622 257.532 188.432 257.18C188.256 256.828 187.992 256.549 187.64 256.344C187.302 256.139 186.899 256.036 186.43 256.036C185.975 256.036 185.572 256.139 185.22 256.344C184.868 256.549 184.596 256.828 184.406 257.18C184.215 257.532 184.12 257.928 184.12 258.368C184.12 258.779 184.215 259.167 184.406 259.534C184.596 259.886 184.86 260.165 185.198 260.37C185.55 260.575 185.96 260.678 186.43 260.678ZM199.541 264.242C198.383 264.242 197.349 264.007 196.439 263.538C195.545 263.054 194.841 262.387 194.327 261.536C193.814 260.685 193.557 259.725 193.557 258.654C193.557 257.583 193.807 256.63 194.305 255.794C194.819 254.943 195.508 254.276 196.373 253.792C197.239 253.308 198.214 253.066 199.299 253.066C200.355 253.066 201.287 253.293 202.093 253.748C202.9 254.203 203.531 254.833 203.985 255.64C204.455 256.447 204.689 257.371 204.689 258.412C204.689 258.603 204.675 258.808 204.645 259.028C204.631 259.233 204.594 259.475 204.535 259.754L195.317 259.776V257.466L203.105 257.444L201.653 258.412C201.639 257.796 201.543 257.29 201.367 256.894C201.191 256.483 200.927 256.175 200.575 255.97C200.238 255.75 199.82 255.64 199.321 255.64C198.793 255.64 198.331 255.765 197.935 256.014C197.554 256.249 197.253 256.586 197.033 257.026C196.828 257.466 196.725 258.001 196.725 258.632C196.725 259.263 196.835 259.805 197.055 260.26C197.29 260.7 197.613 261.045 198.023 261.294C198.449 261.529 198.947 261.646 199.519 261.646C200.047 261.646 200.524 261.558 200.949 261.382C201.375 261.191 201.749 260.913 202.071 260.546L203.919 262.394C203.391 263.01 202.753 263.472 202.005 263.78C201.257 264.088 200.436 264.242 199.541 264.242ZM218.225 264.264C217.067 264.264 215.989 264.059 214.991 263.648C213.994 263.237 213.121 262.665 212.373 261.932C211.64 261.199 211.061 260.348 210.635 259.38C210.225 258.397 210.019 257.341 210.019 256.212C210.019 255.068 210.225 254.012 210.635 253.044C211.046 252.076 211.618 251.233 212.351 250.514C213.099 249.781 213.965 249.216 214.947 248.82C215.945 248.409 217.023 248.204 218.181 248.204C219.355 248.204 220.433 248.409 221.415 248.82C222.413 249.216 223.278 249.781 224.011 250.514C224.759 251.233 225.339 252.083 225.749 253.066C226.16 254.034 226.365 255.09 226.365 256.234C226.365 257.363 226.16 258.419 225.749 259.402C225.339 260.37 224.759 261.221 224.011 261.954C223.278 262.673 222.42 263.237 221.437 263.648C220.455 264.059 219.384 264.264 218.225 264.264ZM218.181 261.118C219.12 261.118 219.934 260.913 220.623 260.502C221.313 260.091 221.848 259.519 222.229 258.786C222.625 258.038 222.823 257.18 222.823 256.212C222.823 255.479 222.713 254.819 222.493 254.232C222.273 253.631 221.958 253.117 221.547 252.692C221.137 252.252 220.645 251.922 220.073 251.702C219.516 251.467 218.885 251.35 218.181 251.35C217.257 251.35 216.451 251.555 215.761 251.966C215.072 252.362 214.529 252.927 214.133 253.66C213.752 254.379 213.561 255.229 213.561 256.212C213.561 256.945 213.671 257.613 213.891 258.214C214.111 258.815 214.427 259.336 214.837 259.776C215.248 260.201 215.732 260.531 216.289 260.766C216.861 261.001 217.492 261.118 218.181 261.118ZM225.155 265.232L217.895 257.972L219.897 255.97L227.157 263.23L225.155 265.232ZM231.606 257.598V255.046H234.884C235.573 255.046 236.101 254.87 236.468 254.518C236.849 254.166 237.04 253.689 237.04 253.088C237.04 252.531 236.856 252.069 236.49 251.702C236.123 251.335 235.595 251.152 234.906 251.152H231.606V248.468H235.302C236.328 248.468 237.23 248.666 238.008 249.062C238.785 249.443 239.394 249.979 239.834 250.668C240.274 251.357 240.494 252.149 240.494 253.044C240.494 253.953 240.274 254.753 239.834 255.442C239.394 256.117 238.778 256.645 237.986 257.026C237.194 257.407 236.262 257.598 235.192 257.598H231.606ZM228.966 264V248.468H232.42V264H228.966ZM237.414 264L232.574 257.312L235.742 256.454L241.506 264H237.414ZM252.369 264.242C251.269 264.242 250.271 264 249.377 263.516C248.482 263.032 247.778 262.365 247.265 261.514C246.751 260.663 246.495 259.71 246.495 258.654C246.495 257.583 246.751 256.63 247.265 255.794C247.793 254.943 248.504 254.276 249.399 253.792C250.293 253.308 251.298 253.066 252.413 253.066C253.249 253.066 254.011 253.213 254.701 253.506C255.405 253.785 256.028 254.21 256.571 254.782L254.415 256.938C254.165 256.659 253.872 256.454 253.535 256.322C253.212 256.19 252.838 256.124 252.413 256.124C251.929 256.124 251.496 256.234 251.115 256.454C250.748 256.659 250.455 256.953 250.235 257.334C250.029 257.701 249.927 258.133 249.927 258.632C249.927 259.131 250.029 259.571 250.235 259.952C250.455 260.333 250.755 260.634 251.137 260.854C251.518 261.074 251.943 261.184 252.413 261.184C252.853 261.184 253.241 261.111 253.579 260.964C253.931 260.803 254.231 260.583 254.481 260.304L256.615 262.46C256.057 263.047 255.427 263.494 254.723 263.802C254.019 264.095 253.234 264.242 252.369 264.242ZM263.003 264.242C261.903 264.242 260.906 264 260.011 263.516C259.131 263.017 258.434 262.343 257.921 261.492C257.408 260.641 257.151 259.688 257.151 258.632C257.151 257.576 257.408 256.63 257.921 255.794C258.434 254.958 259.131 254.298 260.011 253.814C260.891 253.315 261.888 253.066 263.003 253.066C264.118 253.066 265.115 253.308 265.995 253.792C266.875 254.276 267.572 254.943 268.085 255.794C268.598 256.63 268.855 257.576 268.855 258.632C268.855 259.688 268.598 260.641 268.085 261.492C267.572 262.343 266.875 263.017 265.995 263.516C265.115 264 264.118 264.242 263.003 264.242ZM263.003 261.184C263.487 261.184 263.912 261.081 264.279 260.876C264.646 260.656 264.924 260.355 265.115 259.974C265.32 259.578 265.423 259.131 265.423 258.632C265.423 258.133 265.32 257.701 265.115 257.334C264.91 256.953 264.624 256.659 264.257 256.454C263.905 256.234 263.487 256.124 263.003 256.124C262.534 256.124 262.116 256.234 261.749 256.454C261.382 256.659 261.096 256.953 260.891 257.334C260.686 257.715 260.583 258.155 260.583 258.654C260.583 259.138 260.686 259.578 260.891 259.974C261.096 260.355 261.382 260.656 261.749 260.876C262.116 261.081 262.534 261.184 263.003 261.184ZM275.085 264.22C274.073 264.22 273.171 263.978 272.379 263.494C271.601 263.01 270.985 262.35 270.531 261.514C270.091 260.678 269.871 259.725 269.871 258.654C269.871 257.583 270.091 256.63 270.531 255.794C270.985 254.958 271.601 254.298 272.379 253.814C273.171 253.33 274.073 253.088 275.085 253.088C275.818 253.088 276.478 253.227 277.065 253.506C277.666 253.785 278.157 254.173 278.539 254.672C278.935 255.156 279.155 255.713 279.199 256.344V260.854C279.155 261.485 278.942 262.057 278.561 262.57C278.179 263.069 277.688 263.472 277.087 263.78C276.485 264.073 275.818 264.22 275.085 264.22ZM275.679 261.184C276.163 261.184 276.581 261.081 276.933 260.876C277.285 260.656 277.563 260.355 277.769 259.974C277.974 259.593 278.077 259.153 278.077 258.654C278.077 258.155 277.974 257.723 277.769 257.356C277.578 256.975 277.299 256.674 276.933 256.454C276.581 256.234 276.17 256.124 275.701 256.124C275.231 256.124 274.813 256.234 274.447 256.454C274.095 256.674 273.809 256.975 273.589 257.356C273.383 257.737 273.281 258.17 273.281 258.654C273.281 259.138 273.383 259.571 273.589 259.952C273.794 260.333 274.08 260.634 274.447 260.854C274.813 261.074 275.224 261.184 275.679 261.184ZM281.245 264H277.945V261.118L278.451 258.522L277.879 255.926V248.028H281.245V264ZM288.895 264.242C287.736 264.242 286.702 264.007 285.793 263.538C284.898 263.054 284.194 262.387 283.681 261.536C283.167 260.685 282.911 259.725 282.911 258.654C282.911 257.583 283.16 256.63 283.659 255.794C284.172 254.943 284.861 254.276 285.727 253.792C286.592 253.308 287.567 253.066 288.653 253.066C289.709 253.066 290.64 253.293 291.447 253.748C292.253 254.203 292.884 254.833 293.339 255.64C293.808 256.447 294.043 257.371 294.043 258.412C294.043 258.603 294.028 258.808 293.999 259.028C293.984 259.233 293.947 259.475 293.889 259.754L284.671 259.776V257.466L292.459 257.444L291.007 258.412C290.992 257.796 290.897 257.29 290.721 256.894C290.545 256.483 290.281 256.175 289.929 255.97C289.591 255.75 289.173 255.64 288.675 255.64C288.147 255.64 287.685 255.765 287.289 256.014C286.907 256.249 286.607 256.586 286.387 257.026C286.181 257.466 286.079 258.001 286.079 258.632C286.079 259.263 286.189 259.805 286.409 260.26C286.643 260.7 286.966 261.045 287.377 261.294C287.802 261.529 288.301 261.646 288.873 261.646C289.401 261.646 289.877 261.558 290.303 261.382C290.728 261.191 291.102 260.913 291.425 260.546L293.273 262.394C292.745 263.01 292.107 263.472 291.359 263.78C290.611 264.088 289.789 264.242 288.895 264.242ZM299.561 264.264C298.931 264.264 298.307 264.183 297.691 264.022C297.09 263.861 296.525 263.633 295.997 263.34C295.484 263.032 295.044 262.68 294.677 262.284L296.591 260.348C296.943 260.729 297.361 261.03 297.845 261.25C298.329 261.455 298.857 261.558 299.429 261.558C299.825 261.558 300.126 261.499 300.331 261.382C300.551 261.265 300.661 261.103 300.661 260.898C300.661 260.634 300.529 260.436 300.265 260.304C300.016 260.157 299.693 260.033 299.297 259.93C298.901 259.813 298.483 259.688 298.043 259.556C297.603 259.424 297.185 259.241 296.789 259.006C296.393 258.771 296.071 258.449 295.821 258.038C295.572 257.613 295.447 257.077 295.447 256.432C295.447 255.743 295.623 255.149 295.975 254.65C296.327 254.137 296.826 253.733 297.471 253.44C298.117 253.147 298.872 253 299.737 253C300.647 253 301.483 253.161 302.245 253.484C303.023 253.792 303.653 254.254 304.137 254.87L302.223 256.806C301.886 256.41 301.505 256.131 301.079 255.97C300.669 255.809 300.265 255.728 299.869 255.728C299.488 255.728 299.202 255.787 299.011 255.904C298.821 256.007 298.725 256.161 298.725 256.366C298.725 256.586 298.85 256.762 299.099 256.894C299.349 257.026 299.671 257.143 300.067 257.246C300.463 257.349 300.881 257.473 301.321 257.62C301.761 257.767 302.179 257.965 302.575 258.214C302.971 258.463 303.294 258.801 303.543 259.226C303.793 259.637 303.917 260.179 303.917 260.854C303.917 261.895 303.521 262.724 302.729 263.34C301.952 263.956 300.896 264.264 299.561 264.264Z" fill="#2F3C33"/>
</g>
<defs>
<filter id="filter0_d_1672_6783" x="0" y="0" width="453.33" height="353.48" filterUnits="userSpaceOnUse" color-interpolation-filters="sRGB">
<feFlood flood-opacity="0" result="BackgroundImageFix"/>
<feColorMatrix in="SourceAlpha" type="matrix" values="0 0 0 0 0 0 0 0 0 0 0 0 0 0 0 0 0 0 127 0" result="hardAlpha"/>
<feOffset dx="20" dy="20"/>
<feGaussianBlur stdDeviation="20"/>
<feComposite in2="hardAlpha" operator="out"/>
<feColorMatrix type="matrix" values="0 0 0 0 0.0784314 0 0 0 0 0.0235294 0 0 0 0 0.0745098 0 0 0 0.1 0"/>
<feBlend mode="normal" in2="BackgroundImageFix" result="effect1_dropShadow_1672_6783"/>
<feBlend mode="normal" in="SourceGraphic" in2="effect1_dropShadow_1672_6783" result="shape"/>
</filter>
<filter id="filter1_d_1672_6783" x="44.1548" y="27" width="365" height="242" filterUnits="userSpaceOnUse" color-interpolation-filters="sRGB">
<feFlood flood-opacity="0" result="BackgroundImageFix"/>
<feColorMatrix in="SourceAlpha" type="matrix" values="0 0 0 0 0 0 0 0 0 0 0 0 0 0 0 0 0 0 127 0" result="hardAlpha"/>
<feOffset dx="20" dy="20"/>
<feGaussianBlur stdDeviation="20"/>
<feComposite in2="hardAlpha" operator="out"/>
<feColorMatrix type="matrix" values="0 0 0 0 0 0 0 0 0 0 0 0 0 0 0 0 0 0 0.1 0"/>
<feBlend mode="normal" in2="BackgroundImageFix" result="effect1_dropShadow_1672_6783"/>
<feBlend mode="normal" in="SourceGraphic" in2="effect1_dropShadow_1672_6783" result="shape"/>
</filter>
<linearGradient id="paint0_linear_1672_6783" x1="20" y1="156.74" x2="393.33" y2="156.74" gradientUnits="userSpaceOnUse">
<stop stop-color="#86C63A"/>
<stop offset="0.58" stop-color="#FF7A5A"/>
<stop offset="1" stop-color="#FFBC41"/>
</linearGradient>
</defs>
</svg>
