<svg width="628" height="196" viewBox="0 0 628 196" fill="none" xmlns="http://www.w3.org/2000/svg">
<path d="M8.3999 195.433L16.7297 181.005H0.0700693L8.3999 195.433ZM627.132 2.02344C627.132 1.22662 626.486 0.580668 625.689 0.580668C624.892 0.580668 624.246 1.22662 624.246 2.02344H627.132ZM9.84267 190.21C9.84267 189.413 9.19672 188.767 8.3999 188.767C7.60308 188.767 6.95713 189.413 6.95713 190.21H9.84267ZM6.95713 179.764C6.95713 180.56 7.60308 181.206 8.3999 181.206C9.19672 181.206 9.84267 180.56 9.84267 179.764H6.95713ZM9.84267 169.317C9.84267 168.52 9.19672 167.874 8.3999 167.874C7.60308 167.874 6.95713 168.52 6.95713 169.317H9.84267ZM6.95713 158.871C6.95713 159.668 7.60308 160.314 8.3999 160.314C9.19672 160.314 9.84267 159.668 9.84267 158.871H6.95713ZM10.0084 148.503C10.0597 147.708 9.4568 147.022 8.66163 146.971C7.86647 146.919 7.18021 147.522 7.12883 148.317L10.0084 148.503ZM8.50729 137.755C8.35265 138.536 8.86096 139.295 9.64263 139.45C10.4243 139.605 11.1833 139.096 11.338 138.315L8.50729 137.755ZM13.9919 128.387C14.248 127.632 13.8439 126.813 13.0894 126.557C12.3348 126.301 11.5156 126.705 11.2595 127.459L13.9919 128.387ZM15.3405 117.618C14.9875 118.332 15.2805 119.197 15.9949 119.55C16.7093 119.903 17.5745 119.61 17.9275 118.896L15.3405 117.618ZM23.0736 110.001C23.5168 109.339 23.3394 108.443 22.6773 107.999C22.0152 107.556 21.119 107.734 20.6758 108.396L23.0736 110.001ZM27.1673 99.9479C26.6417 100.547 26.7011 101.458 27.2999 101.984C27.8988 102.51 28.8104 102.45 29.336 101.851L27.1673 99.9479ZM36.6035 94.5837C37.2024 94.0581 37.2618 93.1465 36.7362 92.5477C36.2106 91.9488 35.299 91.8894 34.7001 92.415L36.6035 94.5837ZM43.148 85.9235C42.4858 86.3668 42.3084 87.2629 42.7517 87.925C43.195 88.5872 44.0911 88.7646 44.7533 88.3213L43.148 85.9235ZM53.6482 83.1752C54.3626 82.8222 54.6555 81.957 54.3026 81.2426C53.9496 80.5282 53.0844 80.2352 52.37 80.5882L53.6482 83.1752ZM62.2116 76.5072C61.4571 76.7633 61.053 77.5826 61.3091 78.3371C61.5651 79.0917 62.3844 79.4957 63.139 79.2397L62.2116 76.5072ZM73.0669 76.5857C73.8486 76.431 74.3569 75.672 74.2022 74.8903C74.0476 74.1087 73.2886 73.6004 72.5069 73.755L73.0669 76.5857ZM83.0696 72.3765C82.2744 72.4279 81.6714 73.1142 81.7228 73.9093C81.7742 74.7045 82.4605 75.3075 83.2556 75.2561L83.0696 72.3765ZM93.4614 75.0904C94.2583 75.0904 94.9042 74.4444 94.9042 73.6476C94.9042 72.8508 94.2583 72.2048 93.4614 72.2048V75.0904ZM103.585 72.2048C102.788 72.2048 102.142 72.8508 102.142 73.6476C102.142 74.4444 102.788 75.0904 103.585 75.0904V72.2048ZM113.708 75.0904C114.505 75.0904 115.151 74.4444 115.151 73.6476C115.151 72.8508 114.505 72.2048 113.708 72.2048V75.0904ZM123.831 72.2048C123.034 72.2048 122.388 72.8508 122.388 73.6476C122.388 74.4444 123.034 75.0904 123.831 75.0904V72.2048ZM133.954 75.0904C134.751 75.0904 135.397 74.4444 135.397 73.6476C135.397 72.8508 134.751 72.2048 133.954 72.2048V75.0904ZM144.077 72.2048C143.28 72.2048 142.634 72.8508 142.634 73.6476C142.634 74.4444 143.28 75.0904 144.077 75.0904V72.2048ZM154.2 75.0904C154.997 75.0904 155.643 74.4444 155.643 73.6476C155.643 72.8508 154.997 72.2048 154.2 72.2048V75.0904ZM164.323 72.2048C163.527 72.2048 162.881 72.8508 162.881 73.6476C162.881 74.4444 163.527 75.0904 164.323 75.0904V72.2048ZM174.447 75.0904C175.243 75.0904 175.889 74.4444 175.889 73.6476C175.889 72.8508 175.243 72.2048 174.447 72.2048V75.0904ZM184.57 72.2048C183.773 72.2048 183.127 72.8508 183.127 73.6476C183.127 74.4444 183.773 75.0904 184.57 75.0904V72.2048ZM194.693 75.0904C195.49 75.0904 196.136 74.4444 196.136 73.6476C196.136 72.8508 195.49 72.2048 194.693 72.2048V75.0904ZM204.816 72.2048C204.019 72.2048 203.373 72.8508 203.373 73.6476C203.373 74.4444 204.019 75.0904 204.816 75.0904V72.2048ZM214.939 75.0904C215.736 75.0904 216.382 74.4444 216.382 73.6476C216.382 72.8508 215.736 72.2048 214.939 72.2048V75.0904ZM225.062 72.2048C224.266 72.2048 223.62 72.8508 223.62 73.6476C223.62 74.4444 224.266 75.0904 225.062 75.0904V72.2048ZM235.185 75.0904C235.982 75.0904 236.628 74.4444 236.628 73.6476C236.628 72.8508 235.982 72.2048 235.185 72.2048V75.0904ZM245.309 72.2048C244.512 72.2048 243.866 72.8508 243.866 73.6476C243.866 74.4444 244.512 75.0904 245.309 75.0904V72.2048ZM255.432 75.0904C256.229 75.0904 256.875 74.4444 256.875 73.6476C256.875 72.8508 256.229 72.2048 255.432 72.2048V75.0904ZM265.555 72.2048C264.758 72.2048 264.112 72.8508 264.112 73.6476C264.112 74.4444 264.758 75.0904 265.555 75.0904V72.2048ZM275.678 75.0904C276.475 75.0904 277.121 74.4444 277.121 73.6476C277.121 72.8508 276.475 72.2048 275.678 72.2048V75.0904ZM285.801 72.2048C285.004 72.2048 284.358 72.8508 284.358 73.6476C284.358 74.4444 285.004 75.0904 285.801 75.0904V72.2048ZM295.924 75.0904C296.721 75.0904 297.367 74.4444 297.367 73.6476C297.367 72.8508 296.721 72.2048 295.924 72.2048V75.0904ZM306.047 72.2048C305.251 72.2048 304.605 72.8508 304.605 73.6476C304.605 74.4444 305.251 75.0904 306.047 75.0904V72.2048ZM316.171 75.0904C316.967 75.0904 317.613 74.4444 317.613 73.6476C317.613 72.8508 316.967 72.2048 316.171 72.2048V75.0904ZM326.294 72.2048C325.497 72.2048 324.851 72.8508 324.851 73.6476C324.851 74.4444 325.497 75.0904 326.294 75.0904V72.2048ZM336.417 75.0904C337.214 75.0904 337.86 74.4444 337.86 73.6476C337.86 72.8508 337.214 72.2048 336.417 72.2048V75.0904ZM346.54 72.2048C345.743 72.2048 345.097 72.8508 345.097 73.6476C345.097 74.4444 345.743 75.0904 346.54 75.0904V72.2048ZM356.663 75.0904C357.46 75.0904 358.106 74.4444 358.106 73.6476C358.106 72.8508 357.46 72.2048 356.663 72.2048V75.0904ZM366.786 72.2048C365.989 72.2048 365.344 72.8508 365.344 73.6476C365.344 74.4444 365.989 75.0904 366.786 75.0904V72.2048ZM376.909 75.0904C377.706 75.0904 378.352 74.4444 378.352 73.6476C378.352 72.8508 377.706 72.2048 376.909 72.2048V75.0904ZM387.033 72.2048C386.236 72.2048 385.59 72.8508 385.59 73.6476C385.59 74.4444 386.236 75.0904 387.033 75.0904V72.2048ZM397.156 75.0904C397.953 75.0904 398.598 74.4444 398.598 73.6476C398.598 72.8508 397.953 72.2048 397.156 72.2048V75.0904ZM407.279 72.2048C406.482 72.2048 405.836 72.8508 405.836 73.6476C405.836 74.4444 406.482 75.0904 407.279 75.0904V72.2048ZM417.402 75.0904C418.199 75.0904 418.845 74.4444 418.845 73.6476C418.845 72.8508 418.199 72.2048 417.402 72.2048V75.0904ZM427.525 72.2048C426.728 72.2048 426.082 72.8508 426.082 73.6476C426.082 74.4444 426.728 75.0904 427.525 75.0904V72.2048ZM437.648 75.0904C438.445 75.0904 439.091 74.4444 439.091 73.6476C439.091 72.8508 438.445 72.2048 437.648 72.2048V75.0904ZM447.771 72.2048C446.975 72.2048 446.329 72.8508 446.329 73.6476C446.329 74.4444 446.975 75.0904 447.771 75.0904V72.2048ZM457.895 75.0904C458.691 75.0904 459.337 74.4444 459.337 73.6476C459.337 72.8508 458.691 72.2048 457.895 72.2048V75.0904ZM468.018 72.2048C467.221 72.2048 466.575 72.8508 466.575 73.6476C466.575 74.4444 467.221 75.0904 468.018 75.0904V72.2048ZM478.141 75.0904C478.938 75.0904 479.584 74.4444 479.584 73.6476C479.584 72.8508 478.938 72.2048 478.141 72.2048V75.0904ZM488.264 72.2048C487.467 72.2048 486.821 72.8508 486.821 73.6476C486.821 74.4444 487.467 75.0904 488.264 75.0904V72.2048ZM498.387 75.0904C499.184 75.0904 499.83 74.4444 499.83 73.6476C499.83 72.8508 499.184 72.2048 498.387 72.2048V75.0904ZM508.51 72.2048C507.713 72.2048 507.067 72.8508 507.067 73.6476C507.067 74.4444 507.713 75.0904 508.51 75.0904V72.2048ZM518.633 75.0904C519.43 75.0904 520.076 74.4444 520.076 73.6476C520.076 72.8508 519.43 72.2048 518.633 72.2048V75.0904ZM528.757 72.2048C527.96 72.2048 527.314 72.8508 527.314 73.6476C527.314 74.4444 527.96 75.0904 528.757 75.0904V72.2048ZM538.88 75.0904C539.676 75.0904 540.322 74.4444 540.322 73.6476C540.322 72.8508 539.676 72.2048 538.88 72.2048V75.0904ZM549.003 72.2048C548.206 72.2048 547.56 72.8508 547.56 73.6476C547.56 74.4444 548.206 75.0904 549.003 75.0904V72.2048ZM558.847 74.9363C559.642 74.885 560.245 74.1987 560.193 73.4035C560.142 72.6084 559.456 72.0054 558.661 72.0568L558.847 74.9363ZM567.763 70.869C566.981 71.0236 566.473 71.7826 566.628 72.5643C566.782 73.346 567.541 73.8543 568.323 73.6997L567.763 70.869ZM577.56 71.2305C578.314 70.9744 578.718 70.1551 578.462 69.4006C578.206 68.646 577.387 68.2419 576.632 68.498L577.56 71.2305ZM585.111 64.9821C584.397 65.3351 584.104 66.2003 584.457 66.9147C584.81 67.6291 585.675 67.9221 586.389 67.5691L585.111 64.9821ZM594.663 62.7825C595.325 62.3392 595.502 61.4431 595.059 60.781C594.616 60.1189 593.72 59.9414 593.057 60.3847L594.663 62.7825ZM600.338 54.7899C599.74 55.3155 599.68 56.2271 600.206 56.826C600.731 57.4249 601.643 57.4843 602.242 56.9586L600.338 54.7899ZM609 50.2006C609.525 49.6017 609.466 48.6901 608.867 48.1645C608.268 47.6389 607.357 47.6983 606.831 48.2972L609 50.2006ZM612.426 41.0163C611.983 41.6784 612.16 42.5746 612.822 43.0179C613.484 43.4611 614.38 43.2837 614.824 42.6216L612.426 41.0163ZM619.61 34.348C619.963 33.6336 619.67 32.7684 618.956 32.4154C618.242 32.0624 617.376 32.3554 617.023 33.0698L619.61 34.348ZM620.539 24.591C620.283 25.3456 620.687 26.1649 621.442 26.4209C622.196 26.677 623.016 26.2729 623.272 25.5184L620.539 24.591ZM625.741 16.2818C625.895 15.5001 625.387 14.7411 624.605 14.5864C623.824 14.4318 623.065 14.9401 622.91 15.7218L625.741 16.2818ZM624.098 6.61933C624.047 7.41449 624.65 8.10075 625.445 8.15214C626.24 8.20352 626.926 7.60057 626.978 6.80541L624.098 6.61933ZM9.84267 179.764V169.317H6.95713V179.764H9.84267ZM9.84267 158.871V153.648H6.95713V158.871H9.84267ZM9.84267 153.648C9.84267 151.919 9.89848 150.204 10.0084 148.503L7.12883 148.317C7.01494 150.08 6.95713 151.857 6.95713 153.648H9.84267ZM11.338 138.315C12.0092 134.922 12.899 131.607 13.9919 128.387L11.2595 127.459C10.126 130.799 9.20334 134.236 8.50729 137.755L11.338 138.315ZM17.9275 118.896C19.4516 115.811 21.1724 112.841 23.0736 110.001L20.6758 108.396C18.7049 111.34 16.9208 114.419 15.3405 117.618L17.9275 118.896ZM29.336 101.851C31.5981 99.2739 34.0262 96.8458 36.6035 94.5837L34.7001 92.415C32.0287 94.7597 29.5119 97.2764 27.1673 99.9479L29.336 101.851ZM44.7533 88.3213C47.593 86.4201 50.5634 84.6993 53.6482 83.1752L52.37 80.5882C49.1715 82.1685 46.0918 83.9526 43.148 85.9235L44.7533 88.3213ZM63.139 79.2397C66.3595 78.1467 69.6738 77.2569 73.0669 76.5857L72.5069 73.755C68.9885 74.451 65.5514 75.3737 62.2116 76.5072L63.139 79.2397ZM83.2556 75.2561C84.956 75.1462 86.6713 75.0904 88.3999 75.0904V72.2048C86.6092 72.2048 84.8318 72.2627 83.0696 72.3765L83.2556 75.2561ZM88.3999 75.0904H93.4614V72.2048H88.3999V75.0904ZM103.585 75.0904H113.708V72.2048H103.585V75.0904ZM123.831 75.0904H133.954V72.2048H123.831V75.0904ZM144.077 75.0904H154.2V72.2048H144.077V75.0904ZM164.323 75.0904H174.447V72.2048H164.323V75.0904ZM184.57 75.0904H194.693V72.2048H184.57V75.0904ZM204.816 75.0904H214.939V72.2048H204.816V75.0904ZM225.062 75.0904H235.185V72.2048H225.062V75.0904ZM245.309 75.0904H255.432V72.2048H245.309V75.0904ZM265.555 75.0904H275.678V72.2048H265.555V75.0904ZM285.801 75.0904H295.924V72.2048H285.801V75.0904ZM306.047 75.0904H316.171V72.2048H306.047V75.0904ZM326.294 75.0904H336.417V72.2048H326.294V75.0904ZM346.54 75.0904H356.663V72.2048H346.54V75.0904ZM366.786 75.0904H376.909V72.2048H366.786V75.0904ZM387.033 75.0904H397.156V72.2048H387.033V75.0904ZM407.279 75.0904H417.402V72.2048H407.279V75.0904ZM427.525 75.0904H437.648V72.2048H427.525V75.0904ZM447.771 75.0904H457.895V72.2048H447.771V75.0904ZM468.018 75.0904H478.141V72.2048H468.018V75.0904ZM488.264 75.0904H498.387V72.2048H488.264V75.0904ZM508.51 75.0904H518.633V72.2048H508.51V75.0904ZM528.757 75.0904H538.88V72.2048H528.757V75.0904ZM549.003 75.0904H554.065V72.2048H549.003V75.0904ZM554.065 75.0904C555.671 75.0904 557.266 75.0385 558.847 74.9363L558.661 72.0568C557.141 72.155 555.609 72.2048 554.065 72.2048V75.0904ZM568.323 73.6997C571.48 73.0752 574.563 72.2474 577.56 71.2305L576.632 68.498C573.755 69.4744 570.794 70.2693 567.763 70.869L568.323 73.6997ZM586.389 67.5691C589.259 66.1513 592.022 64.5507 594.663 62.7825L593.057 60.3847C590.521 62.0832 587.867 63.6205 585.111 64.9821L586.389 67.5691ZM602.242 56.9586C604.638 54.8551 606.896 52.5973 609 50.2006L606.831 48.2972C604.81 50.5998 602.641 52.769 600.338 54.7899L602.242 56.9586ZM614.824 42.6216C616.592 39.9805 618.192 37.2176 619.61 34.348L617.023 33.0698C615.662 35.8256 614.124 38.4794 612.426 41.0163L614.824 42.6216ZM623.272 25.5184C624.289 22.522 625.116 19.4384 625.741 16.2818L622.91 15.7218C622.31 18.753 621.516 21.714 620.539 24.591L623.272 25.5184ZM626.978 6.80541C627.08 5.2244 627.132 3.62987 627.132 2.02344H624.246C624.246 3.56775 624.196 5.10022 624.098 6.61933L626.978 6.80541Z" fill="url(#paint0_linear_1500_18546)"/>
<defs>
<linearGradient id="paint0_linear_1500_18546" x1="8.3999" y1="98.7283" x2="625.689" y2="98.7283" gradientUnits="userSpaceOnUse">
<stop stop-color="#FECB32"/>
<stop offset="0.675" stop-color="#00A884"/>
</linearGradient>
</defs>
</svg>
