<svg width="59" height="59" viewBox="0 0 59 59" fill="none" xmlns="http://www.w3.org/2000/svg">
<path d="M44.2355 53.3835L43.8387 53.3534L43.4959 53.5555C39.2098 56.0814 34.329 57.4239 29.3541 57.4454C13.8422 57.444 1.26811 44.869 1.26811 29.3568C1.26811 13.8436 13.8436 1.26811 29.3568 1.26811C44.8685 1.26811 57.4442 13.8424 57.446 29.3551C57.431 34.486 56.0099 39.5149 53.3382 43.8962L53.0374 44.3895L53.2122 44.9401C53.8814 47.0482 54.2342 49.4695 54.3308 51.7091C54.3944 53.182 54.3453 54.5342 54.2174 55.6336C51.3402 54.4409 48.0358 53.6712 44.2355 53.3835Z" fill="#02D301"/>
<path d="M44.2355 53.3835L43.8387 53.3534L43.4959 53.5555C39.2098 56.0814 34.329 57.4239 29.3541 57.4454C13.8422 57.444 1.26811 44.869 1.26811 29.3568C1.26811 13.8436 13.8436 1.26811 29.3568 1.26811C44.8685 1.26811 57.4442 13.8424 57.446 29.3551C57.431 34.486 56.0099 39.5149 53.3382 43.8962L53.0374 44.3895L53.2122 44.9401C53.8814 47.0482 54.2342 49.4695 54.3308 51.7091C54.3944 53.182 54.3453 54.5342 54.2174 55.6336C51.3402 54.4409 48.0358 53.6712 44.2355 53.3835Z" fill="#00A884"/>
<path d="M44.2355 53.3835L43.8387 53.3534L43.4959 53.5555C39.2098 56.0814 34.329 57.4239 29.3541 57.4454C13.8422 57.444 1.26811 44.869 1.26811 29.3568C1.26811 13.8436 13.8436 1.26811 29.3568 1.26811C44.8685 1.26811 57.4442 13.8424 57.446 29.3551C57.431 34.486 56.0099 39.5149 53.3382 43.8962L53.0374 44.3895L53.2122 44.9401C53.8814 47.0482 54.2342 49.4695 54.3308 51.7091C54.3944 53.182 54.3453 54.5342 54.2174 55.6336C51.3402 54.4409 48.0358 53.6712 44.2355 53.3835Z" stroke="#E8E8E8" stroke-width="2.53621"/>
<path d="M34.6432 42.5055L34.6432 42.5055C34.1399 40.6276 35.2546 38.6972 37.1323 38.1939C39.0099 37.6905 40.94 38.8054 41.4433 40.6833C41.9466 42.5612 40.8319 44.4916 38.9542 44.9949C38.0526 45.2364 37.0916 45.11 36.2831 44.6431C35.4747 44.1762 34.8847 43.4072 34.6432 42.5055Z" fill="#FECB32" stroke="#E8E8E8" stroke-width="0.059604"/>
<path d="M19.9356 27.4498L19.9644 27.4421L19.9567 27.4133L19.2863 24.9044C17.5631 18.456 21.4319 11.7371 27.8627 10.0094L27.8549 9.98058L27.8627 10.0094L32.8852 8.65965L34.7096 15.4875L29.687 16.8372C26.91 17.5837 25.3511 20.29 26.0955 23.075L26.7659 25.5839L26.7736 25.6127L26.8024 25.605L31.7379 24.2791L33.5623 31.1069L28.6268 32.4328L28.5981 32.4406L28.6058 32.4693L32.4432 46.8294L25.6339 48.6588L21.7965 34.2987L21.7888 34.2699L21.76 34.2777L16.8246 35.6035L15.0001 28.7757L19.9356 27.4498Z" fill="white" stroke="#E8E8E8" stroke-width="0.059604"/>
</svg>
