<svg width="411" height="395" viewBox="0 0 411 395" fill="none" xmlns="http://www.w3.org/2000/svg">
<rect y="21" width="411" height="374" rx="20" fill="#FDC3F3"/>
<rect x="20" y="61" width="371" height="275" rx="15" fill="white"/>
<path d="M152.669 369V367.108H156.915C158.044 367.108 159.034 366.866 159.885 366.382C160.736 365.883 161.396 365.201 161.865 364.336C162.349 363.471 162.591 362.473 162.591 361.344C162.591 360.229 162.349 359.239 161.865 358.374C161.381 357.509 160.714 356.834 159.863 356.35C159.012 355.866 158.03 355.624 156.915 355.624H152.691V353.732H156.959C158.074 353.732 159.1 353.923 160.039 354.304C160.992 354.685 161.814 355.221 162.503 355.91C163.207 356.599 163.75 357.406 164.131 358.33C164.527 359.254 164.725 360.266 164.725 361.366C164.725 362.451 164.527 363.463 164.131 364.402C163.75 365.326 163.214 366.133 162.525 366.822C161.836 367.511 161.014 368.047 160.061 368.428C159.122 368.809 158.103 369 157.003 369H152.669ZM151.305 369V353.732H153.373V369H151.305ZM172.078 369.22C171.037 369.22 170.098 368.985 169.262 368.516C168.426 368.032 167.766 367.379 167.282 366.558C166.798 365.737 166.556 364.805 166.556 363.764C166.556 362.737 166.791 361.813 167.26 360.992C167.744 360.171 168.389 359.525 169.196 359.056C170.017 358.572 170.934 358.33 171.946 358.33C172.914 358.33 173.765 358.55 174.498 358.99C175.246 359.43 175.825 360.039 176.236 360.816C176.661 361.593 176.874 362.473 176.874 363.456C176.874 363.603 176.867 363.764 176.852 363.94C176.837 364.101 176.808 364.292 176.764 364.512H167.942V362.862H175.708L174.982 363.5C174.982 362.796 174.857 362.202 174.608 361.718C174.359 361.219 174.007 360.838 173.552 360.574C173.097 360.295 172.547 360.156 171.902 360.156C171.227 360.156 170.633 360.303 170.12 360.596C169.607 360.889 169.211 361.3 168.932 361.828C168.653 362.356 168.514 362.979 168.514 363.698C168.514 364.431 168.661 365.077 168.954 365.634C169.247 366.177 169.665 366.602 170.208 366.91C170.751 367.203 171.374 367.35 172.078 367.35C172.665 367.35 173.2 367.247 173.684 367.042C174.183 366.837 174.608 366.529 174.96 366.118L176.236 367.416C175.737 368.003 175.121 368.45 174.388 368.758C173.669 369.066 172.899 369.22 172.078 369.22ZM182.355 369.22C181.768 369.22 181.211 369.147 180.683 369C180.17 368.839 179.693 368.619 179.253 368.34C178.813 368.047 178.432 367.702 178.109 367.306L179.385 366.03C179.766 366.499 180.206 366.851 180.705 367.086C181.204 367.306 181.761 367.416 182.377 367.416C182.993 367.416 183.47 367.313 183.807 367.108C184.144 366.888 184.313 366.587 184.313 366.206C184.313 365.825 184.174 365.531 183.895 365.326C183.631 365.106 183.286 364.93 182.861 364.798C182.436 364.651 181.981 364.512 181.497 364.38C181.028 364.233 180.58 364.05 180.155 363.83C179.73 363.61 179.378 363.309 179.099 362.928C178.835 362.547 178.703 362.041 178.703 361.41C178.703 360.779 178.857 360.237 179.165 359.782C179.473 359.313 179.898 358.953 180.441 358.704C180.998 358.455 181.666 358.33 182.443 358.33C183.264 358.33 183.99 358.477 184.621 358.77C185.266 359.049 185.794 359.474 186.205 360.046L184.929 361.322C184.636 360.941 184.269 360.647 183.829 360.442C183.404 360.237 182.92 360.134 182.377 360.134C181.805 360.134 181.365 360.237 181.057 360.442C180.764 360.633 180.617 360.904 180.617 361.256C180.617 361.608 180.749 361.879 181.013 362.07C181.277 362.261 181.622 362.422 182.047 362.554C182.487 362.686 182.942 362.825 183.411 362.972C183.88 363.104 184.328 363.287 184.753 363.522C185.178 363.757 185.523 364.072 185.787 364.468C186.066 364.864 186.205 365.385 186.205 366.03C186.205 367.013 185.853 367.79 185.149 368.362C184.46 368.934 183.528 369.22 182.355 369.22ZM193.196 369.22C192.169 369.22 191.238 368.978 190.402 368.494C189.58 368.01 188.928 367.357 188.444 366.536C187.974 365.7 187.74 364.776 187.74 363.764C187.74 362.737 187.974 361.813 188.444 360.992C188.928 360.171 189.58 359.525 190.402 359.056C191.238 358.572 192.169 358.33 193.196 358.33C194.002 358.33 194.75 358.484 195.44 358.792C196.129 359.085 196.723 359.518 197.222 360.09L195.902 361.41C195.579 361.029 195.183 360.743 194.714 360.552C194.259 360.347 193.753 360.244 193.196 360.244C192.536 360.244 191.949 360.398 191.436 360.706C190.922 360.999 190.519 361.41 190.226 361.938C189.932 362.466 189.786 363.075 189.786 363.764C189.786 364.453 189.932 365.062 190.226 365.59C190.519 366.118 190.922 366.536 191.436 366.844C191.949 367.152 192.536 367.306 193.196 367.306C193.753 367.306 194.259 367.211 194.714 367.02C195.183 366.815 195.586 366.521 195.924 366.14L197.222 367.46C196.738 368.017 196.144 368.45 195.44 368.758C194.75 369.066 194.002 369.22 193.196 369.22ZM199.185 369V358.55H201.165V369H199.185ZM201.165 363.038L200.417 362.708C200.417 361.373 200.725 360.31 201.341 359.518C201.957 358.726 202.845 358.33 204.003 358.33C204.531 358.33 205.008 358.425 205.433 358.616C205.859 358.792 206.255 359.093 206.621 359.518L205.323 360.86C205.103 360.625 204.861 360.457 204.597 360.354C204.333 360.251 204.025 360.2 203.673 360.2C202.94 360.2 202.339 360.435 201.869 360.904C201.4 361.373 201.165 362.085 201.165 363.038ZM208.037 369V358.55H210.017V369H208.037ZM209.027 356.46C208.661 356.46 208.36 356.343 208.125 356.108C207.891 355.859 207.773 355.551 207.773 355.184C207.773 354.832 207.891 354.539 208.125 354.304C208.36 354.055 208.661 353.93 209.027 353.93C209.394 353.93 209.695 354.055 209.929 354.304C210.164 354.539 210.281 354.832 210.281 355.184C210.281 355.551 210.164 355.859 209.929 356.108C209.695 356.343 209.394 356.46 209.027 356.46ZM218.435 369.22C217.643 369.22 216.925 369.059 216.279 368.736C215.649 368.399 215.143 367.937 214.761 367.35C214.38 366.763 214.167 366.096 214.123 365.348V362.202C214.167 361.439 214.38 360.772 214.761 360.2C215.157 359.613 215.671 359.159 216.301 358.836C216.947 358.499 217.658 358.33 218.435 358.33C219.389 358.33 220.247 358.572 221.009 359.056C221.787 359.54 222.395 360.193 222.835 361.014C223.275 361.835 223.495 362.759 223.495 363.786C223.495 364.813 223.275 365.737 222.835 366.558C222.395 367.379 221.787 368.032 221.009 368.516C220.247 368.985 219.389 369.22 218.435 369.22ZM218.105 367.35C218.765 367.35 219.345 367.196 219.843 366.888C220.342 366.58 220.738 366.162 221.031 365.634C221.325 365.091 221.471 364.468 221.471 363.764C221.471 363.075 221.325 362.459 221.031 361.916C220.738 361.373 220.342 360.955 219.843 360.662C219.345 360.354 218.773 360.2 218.127 360.2C217.467 360.2 216.888 360.354 216.389 360.662C215.891 360.955 215.502 361.373 215.223 361.916C214.945 362.459 214.805 363.082 214.805 363.786C214.805 364.475 214.937 365.091 215.201 365.634C215.48 366.162 215.869 366.58 216.367 366.888C216.881 367.196 217.46 367.35 218.105 367.35ZM212.935 373.378V358.55H214.915V361.3L214.541 363.83L214.915 366.382V373.378H212.935ZM227.024 369V354.172H229.004V369H227.024ZM224.45 360.354V358.55H231.578V360.354H224.45ZM233.539 369V358.55H235.519V369H233.539ZM234.529 356.46C234.163 356.46 233.862 356.343 233.627 356.108C233.393 355.859 233.275 355.551 233.275 355.184C233.275 354.832 233.393 354.539 233.627 354.304C233.862 354.055 234.163 353.93 234.529 353.93C234.896 353.93 235.197 354.055 235.431 354.304C235.666 354.539 235.783 354.832 235.783 355.184C235.783 355.551 235.666 355.859 235.431 356.108C235.197 356.343 234.896 356.46 234.529 356.46ZM243.211 369.22C242.185 369.22 241.261 368.978 240.439 368.494C239.618 368.01 238.965 367.357 238.481 366.536C237.997 365.7 237.755 364.769 237.755 363.742C237.755 362.73 237.997 361.821 238.481 361.014C238.965 360.193 239.618 359.54 240.439 359.056C241.261 358.572 242.185 358.33 243.211 358.33C244.223 358.33 245.14 358.572 245.961 359.056C246.797 359.525 247.457 360.171 247.941 360.992C248.425 361.813 248.667 362.73 248.667 363.742C248.667 364.769 248.425 365.7 247.941 366.536C247.457 367.357 246.797 368.01 245.961 368.494C245.14 368.978 244.223 369.22 243.211 369.22ZM243.211 367.306C243.871 367.306 244.458 367.152 244.971 366.844C245.485 366.536 245.888 366.118 246.181 365.59C246.475 365.047 246.621 364.431 246.621 363.742C246.621 363.067 246.467 362.466 246.159 361.938C245.866 361.41 245.463 360.999 244.949 360.706C244.451 360.398 243.871 360.244 243.211 360.244C242.551 360.244 241.965 360.398 241.451 360.706C240.938 360.999 240.535 361.41 240.241 361.938C239.948 362.466 239.801 363.067 239.801 363.742C239.801 364.431 239.948 365.047 240.241 365.59C240.535 366.118 240.938 366.536 241.451 366.844C241.965 367.152 242.551 367.306 243.211 367.306ZM258.29 369V362.906C258.29 362.114 258.041 361.461 257.542 360.948C257.044 360.435 256.398 360.178 255.606 360.178C255.078 360.178 254.609 360.295 254.198 360.53C253.788 360.765 253.465 361.087 253.23 361.498C252.996 361.909 252.878 362.378 252.878 362.906L252.064 362.444C252.064 361.652 252.24 360.948 252.592 360.332C252.944 359.716 253.436 359.232 254.066 358.88C254.697 358.513 255.408 358.33 256.2 358.33C256.992 358.33 257.689 358.528 258.29 358.924C258.906 359.32 259.39 359.841 259.742 360.486C260.094 361.117 260.27 361.791 260.27 362.51V369H258.29ZM250.898 369V358.55H252.878V369H250.898Z" fill="black"/>
<rect x="123" width="165" height="37" rx="18.5" fill="#B358A3"/>
<path d="M162.244 27.242C160.968 27.242 159.839 26.9707 158.856 26.428C157.888 25.8853 157.125 25.1373 156.568 24.184C156.025 23.216 155.754 22.116 155.754 20.884V11.468H159.23V21.082C159.23 21.698 159.362 22.2333 159.626 22.688C159.89 23.1427 160.249 23.4947 160.704 23.744C161.173 23.9787 161.687 24.096 162.244 24.096C162.831 24.096 163.344 23.9787 163.784 23.744C164.224 23.4947 164.569 23.15 164.818 22.71C165.082 22.2553 165.214 21.72 165.214 21.104V11.468H168.69V20.906C168.69 22.138 168.419 23.2307 167.876 24.184C167.333 25.1373 166.578 25.8853 165.61 26.428C164.642 26.9707 163.52 27.242 162.244 27.242ZM177.295 27.22C176.577 27.22 175.917 27.0807 175.315 26.802C174.714 26.5233 174.223 26.142 173.841 25.658C173.46 25.1593 173.24 24.5947 173.181 23.964V19.454C173.24 18.8233 173.46 18.2513 173.841 17.738C174.223 17.2247 174.714 16.8213 175.315 16.528C175.917 16.2347 176.577 16.088 177.295 16.088C178.307 16.088 179.202 16.33 179.979 16.814C180.771 17.298 181.387 17.958 181.827 18.794C182.282 19.63 182.509 20.5833 182.509 21.654C182.509 22.7247 182.282 23.678 181.827 24.514C181.387 25.35 180.771 26.01 179.979 26.494C179.202 26.978 178.307 27.22 177.295 27.22ZM176.679 24.184C177.163 24.184 177.581 24.074 177.933 23.854C178.3 23.634 178.586 23.3333 178.791 22.952C178.997 22.5707 179.099 22.138 179.099 21.654C179.099 21.1553 178.997 20.7153 178.791 20.334C178.586 19.9527 178.3 19.6593 177.933 19.454C177.581 19.234 177.171 19.124 176.701 19.124C176.232 19.124 175.814 19.234 175.447 19.454C175.095 19.6593 174.817 19.9527 174.611 20.334C174.406 20.7153 174.303 21.1553 174.303 21.654C174.303 22.138 174.399 22.5707 174.589 22.952C174.795 23.3333 175.081 23.634 175.447 23.854C175.814 24.074 176.225 24.184 176.679 24.184ZM171.135 31.51V16.308H174.501V19.058L173.951 21.654L174.457 24.25V31.51H171.135ZM188.751 31.796C187.578 31.796 186.544 31.5907 185.649 31.18C184.769 30.784 184.073 30.2193 183.559 29.486L185.627 27.418C186.009 27.8727 186.434 28.2173 186.903 28.452C187.387 28.6867 187.967 28.804 188.641 28.804C189.477 28.804 190.13 28.5987 190.599 28.188C191.083 27.7773 191.325 27.198 191.325 26.45V23.722L191.897 21.39L191.391 19.058V16.308H194.691V26.362C194.691 27.462 194.435 28.4153 193.921 29.222C193.408 30.0287 192.704 30.6593 191.809 31.114C190.915 31.5687 189.895 31.796 188.751 31.796ZM188.597 26.67C187.615 26.67 186.742 26.4353 185.979 25.966C185.217 25.4967 184.615 24.8587 184.175 24.052C183.735 23.2453 183.515 22.3507 183.515 21.368C183.515 20.3707 183.735 19.476 184.175 18.684C184.615 17.8773 185.217 17.2467 185.979 16.792C186.742 16.3227 187.615 16.088 188.597 16.088C189.331 16.088 189.983 16.2273 190.555 16.506C191.142 16.77 191.611 17.1513 191.963 17.65C192.33 18.134 192.535 18.6987 192.579 19.344V23.414C192.535 24.0447 192.33 24.6093 191.963 25.108C191.611 25.592 191.142 25.9733 190.555 26.252C189.969 26.5307 189.316 26.67 188.597 26.67ZM189.235 23.678C189.705 23.678 190.108 23.5753 190.445 23.37C190.797 23.1647 191.061 22.8933 191.237 22.556C191.428 22.204 191.523 21.808 191.523 21.368C191.523 20.928 191.428 20.532 191.237 20.18C191.061 19.828 190.797 19.5493 190.445 19.344C190.108 19.1387 189.705 19.036 189.235 19.036C188.781 19.036 188.377 19.1387 188.025 19.344C187.673 19.5493 187.402 19.828 187.211 20.18C187.021 20.532 186.925 20.928 186.925 21.368C186.925 21.7787 187.021 22.1673 187.211 22.534C187.402 22.886 187.666 23.1647 188.003 23.37C188.355 23.5753 188.766 23.678 189.235 23.678ZM197.067 27V16.308H200.433V27H197.067ZM200.433 21.126L199.025 20.026C199.304 18.7793 199.773 17.8113 200.433 17.122C201.093 16.4327 202.01 16.088 203.183 16.088C203.696 16.088 204.144 16.1687 204.525 16.33C204.921 16.4767 205.266 16.7113 205.559 17.034L203.557 19.564C203.41 19.4027 203.227 19.278 203.007 19.19C202.787 19.102 202.538 19.058 202.259 19.058C201.702 19.058 201.254 19.234 200.917 19.586C200.594 19.9233 200.433 20.4367 200.433 21.126ZM210.621 27.22C209.638 27.22 208.758 26.978 207.981 26.494C207.218 26.01 206.609 25.35 206.155 24.514C205.715 23.678 205.495 22.7247 205.495 21.654C205.495 20.5833 205.715 19.63 206.155 18.794C206.609 17.958 207.218 17.298 207.981 16.814C208.758 16.33 209.638 16.088 210.621 16.088C211.339 16.088 211.985 16.2273 212.557 16.506C213.143 16.7847 213.62 17.1733 213.987 17.672C214.353 18.156 214.559 18.7133 214.603 19.344V23.964C214.559 24.5947 214.353 25.1593 213.987 25.658C213.635 26.142 213.165 26.5233 212.579 26.802C211.992 27.0807 211.339 27.22 210.621 27.22ZM211.303 24.184C212.021 24.184 212.601 23.9493 213.041 23.48C213.481 22.996 213.701 22.3873 213.701 21.654C213.701 21.1553 213.598 20.7153 213.393 20.334C213.202 19.9527 212.923 19.6593 212.557 19.454C212.205 19.234 211.794 19.124 211.325 19.124C210.855 19.124 210.437 19.234 210.071 19.454C209.719 19.6593 209.433 19.9527 209.213 20.334C209.007 20.7153 208.905 21.1553 208.905 21.654C208.905 22.138 209.007 22.5707 209.213 22.952C209.418 23.3333 209.704 23.634 210.071 23.854C210.437 24.074 210.848 24.184 211.303 24.184ZM213.569 27V24.118L214.075 21.522L213.569 18.926V16.308H216.869V27H213.569ZM223.793 27.22C222.781 27.22 221.879 26.978 221.087 26.494C220.309 26.01 219.693 25.35 219.239 24.514C218.799 23.678 218.579 22.7247 218.579 21.654C218.579 20.5833 218.799 19.63 219.239 18.794C219.693 17.958 220.309 17.298 221.087 16.814C221.879 16.33 222.781 16.088 223.793 16.088C224.526 16.088 225.186 16.2273 225.773 16.506C226.374 16.7847 226.865 17.1733 227.247 17.672C227.643 18.156 227.863 18.7133 227.907 19.344V23.854C227.863 24.4847 227.65 25.0567 227.269 25.57C226.887 26.0687 226.396 26.472 225.795 26.78C225.193 27.0733 224.526 27.22 223.793 27.22ZM224.387 24.184C224.871 24.184 225.289 24.0813 225.641 23.876C225.993 23.656 226.271 23.3553 226.477 22.974C226.682 22.5927 226.785 22.1527 226.785 21.654C226.785 21.1553 226.682 20.7227 226.477 20.356C226.286 19.9747 226.007 19.674 225.641 19.454C225.289 19.234 224.878 19.124 224.409 19.124C223.939 19.124 223.521 19.234 223.155 19.454C222.803 19.674 222.517 19.9747 222.297 20.356C222.091 20.7373 221.989 21.17 221.989 21.654C221.989 22.138 222.091 22.5707 222.297 22.952C222.502 23.3333 222.788 23.634 223.155 23.854C223.521 24.074 223.932 24.184 224.387 24.184ZM229.953 27H226.653V24.118L227.159 21.522L226.587 18.926V11.028H229.953V27ZM237.603 27.242C236.444 27.242 235.41 27.0073 234.501 26.538C233.606 26.054 232.902 25.3867 232.389 24.536C231.875 23.6853 231.619 22.7247 231.619 21.654C231.619 20.5833 231.868 19.63 232.367 18.794C232.88 17.9433 233.569 17.276 234.435 16.792C235.3 16.308 236.275 16.066 237.361 16.066C238.417 16.066 239.348 16.2933 240.155 16.748C240.961 17.2027 241.592 17.8333 242.047 18.64C242.516 19.4467 242.751 20.3707 242.751 21.412C242.751 21.6027 242.736 21.808 242.707 22.028C242.692 22.2333 242.655 22.4753 242.597 22.754L233.379 22.776V20.466L241.167 20.444L239.715 21.412C239.7 20.796 239.605 20.29 239.429 19.894C239.253 19.4833 238.989 19.1753 238.637 18.97C238.299 18.75 237.881 18.64 237.383 18.64C236.855 18.64 236.393 18.7647 235.997 19.014C235.615 19.2487 235.315 19.586 235.095 20.026C234.889 20.466 234.787 21.0013 234.787 21.632C234.787 22.2627 234.897 22.8053 235.117 23.26C235.351 23.7 235.674 24.0447 236.085 24.294C236.51 24.5287 237.009 24.646 237.581 24.646C238.109 24.646 238.585 24.558 239.011 24.382C239.436 24.1913 239.81 23.9127 240.133 23.546L241.981 25.394C241.453 26.01 240.815 26.472 240.067 26.78C239.319 27.088 238.497 27.242 237.603 27.242ZM250.809 27V11.468H254.241V27H250.809ZM247.817 14.394V11.468H254.021V14.394H247.817Z" fill="white"/>
</svg>
