<svg width="72" height="68" viewBox="0 0 72 68" fill="none" xmlns="http://www.w3.org/2000/svg">
<path d="M70.6569 59.0744C65.5658 48.3878 57.2676 37.4553 45.2686 34.2604C42.2294 33.4512 38.9195 33.4806 35.7618 34.2269M35.7618 34.2269C30.9523 35.3637 26.4959 38.1638 23.8864 42.198C19.8039 48.5094 18.3251 56.6149 23.538 62.6432C26.2552 65.7854 30.0063 67.3349 33.8629 65.1383C39.7549 61.7824 40.8551 52.2416 39.7298 46.303C38.9517 42.1971 37.5969 38.1302 35.7618 34.2269ZM35.7618 34.2269C29.3135 20.5118 16.9354 8.81817 2.81203 4.56049M16.7529 2.0758C13.449 2.30003 5.92421 3.04503 2.25607 4.23115C4.00869 7.04083 7.81048 13.5772 8.9966 17.2454" stroke="url(#paint0_linear_1500_20307)" stroke-opacity="0.6" stroke-width="2.23199" stroke-linecap="round" stroke-dasharray="5.58 5.58"/>
<defs>
<linearGradient id="paint0_linear_1500_20307" x1="-5.63845" y1="19.671" x2="70.8162" y2="58.7629" gradientUnits="userSpaceOnUse">
<stop stop-color="#111B21"/>
<stop offset="1" stop-color="#86C63A"/>
</linearGradient>
</defs>
</svg>
