<svg width="88" height="88" viewBox="0 0 88 88" fill="none" xmlns="http://www.w3.org/2000/svg">
<rect width="88" height="88" rx="25" fill="#FFE4E7"/>
<path d="M41.3119 48.268L40.6519 39.908H43.2039C43.7025 39.908 44.1425 39.8347 44.5239 39.688C44.9052 39.512 45.1985 39.2627 45.4039 38.94C45.6092 38.6173 45.7119 38.236 45.7119 37.796C45.7119 37.356 45.6092 36.9893 45.4039 36.696C45.1985 36.3733 44.9199 36.1387 44.5679 35.992C44.2452 35.816 43.8492 35.728 43.3799 35.728C42.4705 35.728 41.6052 36.0213 40.7839 36.608C39.9919 37.1947 39.3319 37.884 38.8039 38.676L33.6999 33.528C34.5799 31.944 35.8559 30.5947 37.5279 29.48C39.2292 28.336 41.3119 27.764 43.7759 27.764C45.7412 27.764 47.4719 28.204 48.9679 29.084C50.4932 29.9347 51.6812 31.0787 52.5319 32.516C53.3825 33.924 53.8079 35.4787 53.8079 37.18C53.8079 39.0573 53.4412 40.612 52.7079 41.844C52.0039 43.076 51.0652 44.0587 49.8919 44.792C48.7479 45.496 47.5159 46.0093 46.1959 46.332L48.0879 43.296L47.7359 48.268H41.3119ZM44.5239 61.028C43.1452 61.028 42.0012 60.5587 41.0919 59.62C40.1825 58.6813 39.7279 57.5373 39.7279 56.188C39.7279 54.8093 40.1825 53.6507 41.0919 52.712C42.0012 51.7733 43.1452 51.304 44.5239 51.304C45.9025 51.304 47.0319 51.7733 47.9119 52.712C48.8212 53.6507 49.2759 54.8093 49.2759 56.188C49.2759 57.5373 48.8212 58.6813 47.9119 59.62C47.0319 60.5587 45.9025 61.028 44.5239 61.028Z" fill="#F43F5E"/>
</svg>
