<svg width="1440" height="1080" viewBox="0 0 1440 1080" fill="none" xmlns="http://www.w3.org/2000/svg">
<rect width="1440" height="1080" fill="#F9F9F9"/>
<g clip-path="url(#clip0_1743_3831)">
<path d="M1435.71 1047.17C1435.71 1047.17 1374.17 1075.58 1358.29 1175.04C1343.11 1270.37 1280.56 1296 1280.56 1296" stroke="#0F6661" stroke-opacity="0.32" stroke-width="0.607497" stroke-miterlimit="10"/>
<path d="M1435.71 999.367C1435.71 999.367 1360.21 1032.16 1340.76 1152.2C1322.22 1266.79 1245.55 1296 1245.55 1296" stroke="#0F6661" stroke-opacity="0.32" stroke-width="0.607497" stroke-miterlimit="10"/>
<path d="M1435.71 951.433C1435.71 951.433 1346.31 988.745 1323.29 1129.09C1301.34 1263.34 1210.55 1296 1210.55 1296" stroke="#0F6661" stroke-opacity="0.32" stroke-width="0.607497" stroke-miterlimit="10"/>
<path d="M1435.71 903.632C1435.71 903.632 1332.35 945.325 1305.76 1106.26C1280.45 1259.75 1175.54 1296 1175.54 1296" stroke="#0F6661" stroke-opacity="0.32" stroke-width="0.607497" stroke-miterlimit="10"/>
<path d="M1435.71 855.831C1435.71 855.831 1318.39 901.906 1288.23 1083.28C1259.56 1256.17 1140.59 1296 1140.59 1296" stroke="#0F6661" stroke-opacity="0.32" stroke-width="0.607497" stroke-miterlimit="10"/>
<path d="M1435.71 807.897C1435.71 807.897 1304.48 858.354 1270.75 1060.31C1238.62 1252.71 1105.58 1296 1105.58 1296" stroke="#0F6661" stroke-opacity="0.32" stroke-width="0.607497" stroke-miterlimit="10"/>
<path d="M1435.71 760.096C1435.71 760.096 1290.52 815.067 1253.22 1037.34C1217.74 1249.13 1070.58 1296 1070.58 1296" stroke="#0F6661" stroke-opacity="0.32" stroke-width="0.607497" stroke-miterlimit="10"/>
<path d="M1435.71 712.295C1435.71 712.295 1276.56 771.648 1235.75 1014.5C1196.85 1245.54 1035.57 1296 1035.57 1296" stroke="#0F6661" stroke-opacity="0.32" stroke-width="0.607497" stroke-miterlimit="10"/>
<path d="M1435.71 664.361C1435.71 664.361 1262.65 728.096 1218.22 991.4C1175.97 1242.09 1000.62 1296 1000.62 1296" stroke="#0F6661" stroke-opacity="0.32" stroke-width="0.607497" stroke-miterlimit="10"/>
<path d="M1435.71 616.56C1435.71 616.56 1248.7 684.676 1200.74 968.429C1155.08 1238.51 965.614 1296 965.614 1296" stroke="#0F6661" stroke-opacity="0.32" stroke-width="0.607497" stroke-miterlimit="10"/>
<path d="M1435.71 568.626C1435.71 568.626 1234.74 641.257 1183.21 945.458C1134.19 1234.92 930.608 1296 930.608 1296" stroke="#0F6661" stroke-opacity="0.32" stroke-width="0.607497" stroke-miterlimit="10"/>
<path d="M1435.71 520.824C1435.71 520.824 1220.83 597.837 1165.74 922.487C1113.31 1231.47 895.603 1296 895.603 1296" stroke="#0F6661" stroke-opacity="0.32" stroke-width="0.607497" stroke-miterlimit="10"/>
<path d="M1435.71 473.023C1435.71 473.023 1206.87 554.418 1148.21 899.649C1092.42 1227.88 860.597 1296 860.597 1296" stroke="#0F6661" stroke-opacity="0.32" stroke-width="0.607497" stroke-miterlimit="10"/>
<path d="M1435.71 425.089C1435.71 425.089 1192.91 510.999 1130.68 876.545C1071.54 1224.3 825.645 1296 825.645 1296" stroke="#0F6661" stroke-opacity="0.32" stroke-width="0.607497" stroke-miterlimit="10"/>
<path d="M1435.71 377.288C1435.71 377.288 1179 467.579 1113.2 853.707C1050.65 1220.85 790.639 1296 790.639 1296" stroke="#0F6661" stroke-opacity="0.32" stroke-width="0.607497" stroke-miterlimit="10"/>
<path d="M1435.71 329.487C1435.71 329.487 1165.04 424.16 1095.67 830.735C1029.76 1217.26 755.634 1296 755.634 1296" stroke="#0F6661" stroke-opacity="0.32" stroke-width="0.607497" stroke-miterlimit="10"/>
<path d="M1435.71 281.553C1435.71 281.553 1151.08 380.608 1078.2 807.764C1008.88 1213.68 720.628 1296 720.628 1296" stroke="#0F6661" stroke-opacity="0.32" stroke-width="0.607497" stroke-miterlimit="10"/>
<path d="M1435.71 233.752C1435.71 233.752 1137.18 337.321 1060.67 784.793C987.992 1210.22 685.676 1296 685.676 1296" stroke="#0F6661" stroke-opacity="0.32" stroke-width="0.607497" stroke-miterlimit="10"/>
<g filter="url(#filter0_f_1743_3831)">
<rect x="651" y="991.76" width="177" height="30" rx="15" transform="rotate(30 651 991.76)" fill="#4BAB87"/>
</g>
<path d="M1306.5 425L1310.02 430.658L1316.49 432.255L1312.19 437.349L1312.67 443.995L1306.5 441.485L1300.33 443.995L1300.81 437.349L1296.51 432.255L1302.98 430.658L1306.5 425Z" fill="#53BD95"/>
<path d="M193.796 975L196.278 976.684L185.613 992.408L183.13 990.724L193.796 975Z" fill="#53BD95"/>
<path d="M198.35 987.917L196.649 990.388L181 979.612L182.701 977.141L198.35 987.917Z" fill="#53BD95"/>
<g filter="url(#filter1_f_1743_3831)">
<rect x="-70" y="551.85" width="512" height="478" rx="14" transform="rotate(-11.9313 -70 551.85)" fill="#E8E8FF"/>
</g>
<g filter="url(#filter2_f_1743_3831)">
<path d="M534.879 741.762C534.879 806.931 482.049 859.762 416.879 859.762C351.709 859.762 298.879 806.931 298.879 741.762C298.879 676.592 351.709 623.762 416.879 623.762C482.049 623.762 534.879 676.592 534.879 741.762ZM314.012 741.762C314.012 798.573 360.067 844.628 416.879 844.628C473.691 844.628 519.745 798.573 519.745 741.762C519.745 684.95 473.691 638.895 416.879 638.895C360.067 638.895 314.012 684.95 314.012 741.762Z" fill="#CFD1F7"/>
<path d="M497.879 742.262C497.879 787.273 461.614 823.762 416.879 823.762C372.144 823.762 335.879 787.273 335.879 742.262C335.879 697.251 372.144 660.762 416.879 660.762C461.614 660.762 497.879 697.251 497.879 742.262ZM349.866 742.262C349.866 779.501 379.869 809.689 416.879 809.689C453.889 809.689 483.892 779.501 483.892 742.262C483.892 705.023 453.889 674.835 416.879 674.835C379.869 674.835 349.866 705.023 349.866 742.262Z" fill="#CFD1F7"/>
</g>
</g>
<defs>
<filter id="filter0_f_1743_3831" x="491.488" y="847.248" width="457.311" height="403.504" filterUnits="userSpaceOnUse" color-interpolation-filters="sRGB">
<feFlood flood-opacity="0" result="BackgroundImageFix"/>
<feBlend mode="normal" in="SourceGraphic" in2="BackgroundImageFix" result="shape"/>
<feGaussianBlur stdDeviation="75" result="effect1_foregroundBlur_1743_3831"/>
</filter>
<filter id="filter1_f_1743_3831" x="-117.411" y="398.588" width="694.583" height="668.346" filterUnits="userSpaceOnUse" color-interpolation-filters="sRGB">
<feFlood flood-opacity="0" result="BackgroundImageFix"/>
<feBlend mode="normal" in="SourceGraphic" in2="BackgroundImageFix" result="shape"/>
<feGaussianBlur stdDeviation="25" result="effect1_foregroundBlur_1743_3831"/>
</filter>
<filter id="filter2_f_1743_3831" x="273.879" y="598.762" width="286" height="286" filterUnits="userSpaceOnUse" color-interpolation-filters="sRGB">
<feFlood flood-opacity="0" result="BackgroundImageFix"/>
<feBlend mode="normal" in="SourceGraphic" in2="BackgroundImageFix" result="shape"/>
<feGaussianBlur stdDeviation="12.5" result="effect1_foregroundBlur_1743_3831"/>
</filter>
<clipPath id="clip0_1743_3831">
<rect width="1440" height="1080" fill="white"/>
</clipPath>
</defs>
</svg>
