<svg width="153" height="143" viewBox="0 0 153 143" fill="none" xmlns="http://www.w3.org/2000/svg">
<path d="M1.65106 126.158C12.776 102.805 30.909 78.916 57.1291 71.9347C63.7702 70.1664 71.0029 70.2305 77.9031 71.8615M77.9031 71.8615C88.4126 74.3455 98.1507 80.4643 103.853 89.2796C112.774 103.071 116.005 120.783 104.614 133.956C98.6767 140.822 90.4797 144.208 82.0524 139.408C69.1773 132.075 66.7731 111.227 69.2323 98.2499C70.9325 89.2778 73.893 80.3908 77.9031 71.8615ZM77.9031 71.8615C91.9935 41.8915 119.042 16.3389 149.904 7.03511M119.441 1.60564C126.66 2.09563 143.103 3.72358 151.119 6.31546C147.289 12.4551 138.982 26.7383 136.39 34.7538" stroke="url(#paint0_linear_1500_20306)" stroke-opacity="0.6" stroke-width="2.27504" stroke-linecap="round" stroke-dasharray="5.69 5.69"/>
<defs>
<linearGradient id="paint0_linear_1500_20306" x1="168.37" y1="40.0542" x2="1.30301" y2="125.477" gradientUnits="userSpaceOnUse">
<stop stop-color="#111B21"/>
<stop offset="1" stop-color="#86C63A"/>
</linearGradient>
</defs>
</svg>
