<svg width="200" height="43" viewBox="0 0 200 43" fill="none" xmlns="http://www.w3.org/2000/svg">
<path d="M31.8241 38.4054L31.5387 38.3838L31.292 38.5291C28.2084 40.3464 24.697 41.3122 21.1179 41.3277C9.95834 41.3265 0.912307 32.2798 0.912307 21.12C0.912307 9.95946 9.95945 0.912307 21.12 0.912307C32.2796 0.912307 41.327 9.95872 41.3281 21.1191C41.3172 24.8103 40.2948 28.4281 38.3728 31.58L38.1564 31.9349L38.2822 32.331C38.7636 33.8477 39.0174 35.5896 39.0869 37.2008C39.1326 38.2604 39.0974 39.2332 39.0053 40.0242C36.9354 39.1661 34.5581 38.6124 31.8241 38.4054Z" fill="#02D301"/>
<path d="M31.8241 38.4054L31.5387 38.3838L31.292 38.5291C28.2084 40.3464 24.697 41.3122 21.1179 41.3277C9.95834 41.3265 0.912307 32.2798 0.912307 21.12C0.912307 9.95946 9.95945 0.912307 21.12 0.912307C32.2796 0.912307 41.327 9.95872 41.3281 21.1191C41.3172 24.8103 40.2948 28.4281 38.3728 31.58L38.1564 31.9349L38.2822 32.331C38.7636 33.8477 39.0174 35.5896 39.0869 37.2008C39.1326 38.2604 39.0974 39.2332 39.0053 40.0242C36.9354 39.1661 34.5581 38.6124 31.8241 38.4054Z" fill="#00A884"/>
<path d="M31.8241 38.4054L31.5387 38.3838L31.292 38.5291C28.2084 40.3464 24.697 41.3122 21.1179 41.3277C9.95834 41.3265 0.912307 32.2798 0.912307 21.12C0.912307 9.95946 9.95945 0.912307 21.12 0.912307C32.2796 0.912307 41.327 9.95872 41.3281 21.1191C41.3172 24.8103 40.2948 28.4281 38.3728 31.58L38.1564 31.9349L38.2822 32.331C38.7636 33.8477 39.0174 35.5896 39.0869 37.2008C39.1326 38.2604 39.0974 39.2332 39.0053 40.0242C36.9354 39.1661 34.5581 38.6124 31.8241 38.4054Z" stroke="#E8E8E8" stroke-width="1.82461"/>
<path d="M24.9233 30.5795L24.9233 30.5795C25.097 31.2282 25.5215 31.7814 26.1031 32.1173L24.9233 30.5795ZM24.9233 30.5795C24.5613 29.2285 25.3632 27.8397 26.714 27.4776M24.9233 30.5795L26.714 27.4776M26.714 27.4776C28.0648 27.1155 29.4534 27.9175 29.8155 29.2685C30.1775 30.6195 29.3756 32.0083 28.0248 32.3704L26.714 27.4776Z" fill="#FECB32" stroke="#E8E8E8" stroke-width="0.0428806"/>
<path d="M14.3421 19.748L14.3628 19.7425L14.3573 19.7218L13.875 17.9168C12.6353 13.2777 15.4186 8.44398 20.045 7.20097L20.0395 7.18026L20.045 7.20097L23.6583 6.22995L24.9709 11.1421L21.3575 12.1131C19.3596 12.6501 18.2382 14.5971 18.7737 16.6007L19.256 18.4057L19.2615 18.4264L19.2823 18.4208L22.833 17.467L24.1455 22.3791L20.5948 23.333L20.5741 23.3385L20.5796 23.3592L23.3404 33.6902L18.4416 35.0063L15.6809 24.6753L15.6753 24.6546L15.6546 24.6602L12.1039 25.614L10.7914 20.7019L14.3421 19.748Z" fill="white" stroke="#E8E8E8" stroke-width="0.0428806"/>
<path d="M51.0405 6.53122H63.8394V8.46372H53.0681V17.1758H62.8256V19.0766H53.0681V29.2143H51.0405V6.53122Z" fill="white"/>
<path d="M66.8062 29.2143V6.53122H68.8337V29.2143H66.8062Z" fill="white"/>
<path d="M82.9864 26.4581H82.8597C82.3317 27.3663 81.5925 28.1372 80.6421 28.7708C79.7128 29.4044 78.6251 29.7212 77.379 29.7212C76.5342 29.7212 75.7527 29.5839 75.0346 29.3094C74.3166 29.0559 73.6935 28.7074 73.1655 28.2639C72.6375 27.7993 72.2257 27.2501 71.93 26.6165C71.6343 25.9829 71.4864 25.2965 71.4864 24.5573C71.4864 23.7125 71.6554 22.9627 71.9933 22.308C72.3524 21.6533 72.8276 21.1042 73.4189 20.6606C74.0314 20.2171 74.7284 19.8897 75.5098 19.6785C76.3124 19.4462 77.1572 19.3301 78.0443 19.3301C79.1003 19.3301 80.0507 19.4568 80.8955 19.7102C81.7403 19.9425 82.4373 20.2171 82.9864 20.5339V19.5835C82.9864 18.8865 82.8597 18.2529 82.6062 17.6827C82.3528 17.1124 82.0149 16.6267 81.5925 16.2254C81.1701 15.8241 80.6632 15.5179 80.0718 15.3067C79.5016 15.0955 78.8996 14.9899 78.266 14.9899C77.3156 14.9899 76.4708 15.2011 75.7316 15.6235C74.9924 16.0248 74.3799 16.6161 73.8941 17.3976L72.1201 16.2888C72.7325 15.3383 73.5668 14.5886 74.6228 14.0395C75.6788 13.4692 76.8721 13.1841 78.2027 13.1841C79.2376 13.1841 80.1668 13.3425 80.9905 13.6593C81.8142 13.955 82.5217 14.3879 83.1131 14.9582C83.7045 15.5073 84.1586 16.1726 84.4754 16.954C84.7922 17.7144 84.9506 18.5697 84.9506 19.5201V29.2143H82.9864V26.4581ZM82.9864 22.308C82.3528 21.9278 81.6558 21.6216 80.8955 21.3893C80.1563 21.1358 79.3115 21.0091 78.3611 21.0091C77.6641 21.0091 77.0199 21.0936 76.4286 21.2626C75.8583 21.4315 75.3514 21.6744 74.9079 21.9912C74.4855 22.2869 74.1476 22.6565 73.8941 23.1C73.6618 23.5435 73.5457 24.0399 73.5457 24.589C73.5457 25.0959 73.6513 25.5605 73.8625 25.9829C74.0948 26.3842 74.401 26.7327 74.7812 27.0284C75.1614 27.3029 75.5838 27.5247 76.0484 27.6937C76.5342 27.8415 77.0305 27.9154 77.5374 27.9154C78.2343 27.9154 78.9102 27.7676 79.5649 27.4719C80.2196 27.1762 80.8005 26.7749 81.3073 26.268C81.8142 25.74 82.2155 25.1381 82.5112 24.4623C82.828 23.7864 82.9864 23.0683 82.9864 22.308Z" fill="white"/>
<path d="M97.9388 29.2143L93.4718 22.8149L89.0683 29.2143H86.6922L92.2997 21.3259L86.8823 13.691H89.2267L93.5035 19.8053L97.717 13.691H100.125L94.644 21.3259L100.315 29.2143H97.9388Z" fill="white"/>
<path d="M112.108 29.2143L107.641 22.8149L103.238 29.2143H100.862L106.469 21.3259L101.052 13.691H103.396L107.673 19.8053L111.886 13.691H114.294L108.814 21.3259L114.484 29.2143H112.108Z" fill="white"/>
<path d="M126.887 26.4581H126.76C126.232 27.3663 125.493 28.1372 124.543 28.7708C123.613 29.4044 122.526 29.7212 121.28 29.7212C120.435 29.7212 119.653 29.5839 118.935 29.3094C118.217 29.0559 117.594 28.7074 117.066 28.2639C116.538 27.7993 116.126 27.2501 115.831 26.6165C115.535 25.9829 115.387 25.2965 115.387 24.5573C115.387 23.7125 115.556 22.9627 115.894 22.308C116.253 21.6533 116.728 21.1042 117.32 20.6606C117.932 20.2171 118.629 19.8897 119.411 19.6785C120.213 19.4462 121.058 19.3301 121.945 19.3301C123.001 19.3301 123.951 19.4568 124.796 19.7102C125.641 19.9425 126.338 20.2171 126.887 20.5339V19.5835C126.887 18.8865 126.76 18.2529 126.507 17.6827C126.254 17.1124 125.916 16.6267 125.493 16.2254C125.071 15.8241 124.564 15.5179 123.973 15.3067C123.402 15.0955 122.8 14.9899 122.167 14.9899C121.216 14.9899 120.372 15.2011 119.632 15.6235C118.893 16.0248 118.281 16.6161 117.795 17.3976L116.021 16.2888C116.633 15.3383 117.468 14.5886 118.524 14.0395C119.58 13.4692 120.773 13.1841 122.103 13.1841C123.138 13.1841 124.068 13.3425 124.891 13.6593C125.715 13.955 126.422 14.3879 127.014 14.9582C127.605 15.5073 128.059 16.1726 128.376 16.954C128.693 17.7144 128.851 18.5697 128.851 19.5201V29.2143H126.887V26.4581ZM126.887 22.308C126.254 21.9278 125.557 21.6216 124.796 21.3893C124.057 21.1358 123.212 21.0091 122.262 21.0091C121.565 21.0091 120.921 21.0936 120.329 21.2626C119.759 21.4315 119.252 21.6744 118.809 21.9912C118.386 22.2869 118.048 22.6565 117.795 23.1C117.563 23.5435 117.446 24.0399 117.446 24.589C117.446 25.0959 117.552 25.5605 117.763 25.9829C117.996 26.3842 118.302 26.7327 118.682 27.0284C119.062 27.3029 119.484 27.5247 119.949 27.6937C120.435 27.8415 120.931 27.9154 121.438 27.9154C122.135 27.9154 122.811 27.7676 123.466 27.4719C124.12 27.1762 124.701 26.7749 125.208 26.268C125.715 25.74 126.116 25.1381 126.412 24.4623C126.729 23.7864 126.887 23.0683 126.887 22.308Z" fill="white"/>
<path d="M130.969 6.53122H134.739L138.636 21.1042L139.175 23.2901H139.365L139.998 21.1042L143.768 9.57253H147.126L150.896 21.1042L151.53 23.2584H151.72L152.195 21.1042L155.902 6.53122H159.672L153.653 29.2143H150.104L146.208 17.2708L145.542 15.0215H145.352L144.719 17.2708L140.79 29.2143H137.242L130.969 6.53122Z" fill="white"/>
<path d="M170.52 27.3135H170.33C169.866 27.926 169.264 28.4857 168.524 28.9926C167.785 29.4783 166.845 29.7212 165.705 29.7212C164.881 29.7212 164.11 29.5839 163.392 29.3094C162.674 29.0559 162.051 28.6969 161.523 28.2322C160.995 27.7465 160.573 27.1868 160.256 26.5532C159.96 25.8984 159.812 25.1804 159.812 24.3989C159.812 23.5752 159.971 22.836 160.288 22.1813C160.625 21.5266 161.08 20.9774 161.65 20.5339C162.241 20.0904 162.938 19.7525 163.741 19.5201C164.543 19.2667 165.409 19.14 166.338 19.14C167.373 19.14 168.239 19.2456 168.936 19.4568C169.633 19.6469 170.161 19.8264 170.52 19.9953V19.3934C170.52 18.9288 170.415 18.4958 170.203 18.0945C170.013 17.6932 169.739 17.3553 169.38 17.0808C169.042 16.7851 168.651 16.5633 168.208 16.4155C167.764 16.2465 167.299 16.162 166.814 16.162C166.032 16.162 165.325 16.3204 164.691 16.6372C164.079 16.9329 163.53 17.4187 163.044 18.0945L160.256 16.2571C160.995 15.2433 161.914 14.483 163.012 13.9761C164.11 13.4481 165.356 13.1841 166.75 13.1841C169.052 13.1841 170.827 13.7543 172.073 14.8948C173.34 16.0353 173.973 17.6616 173.973 19.7736V29.2143H170.52V27.3135ZM170.52 22.7515C170.056 22.477 169.538 22.2552 168.968 22.0863C168.398 21.9173 167.743 21.8328 167.004 21.8328C165.906 21.8328 165.029 22.0863 164.374 22.5931C163.72 23.1 163.392 23.7125 163.392 24.4306C163.392 24.8108 163.477 25.1487 163.646 25.4444C163.815 25.7189 164.026 25.9618 164.279 26.173C164.554 26.3842 164.86 26.5426 165.198 26.6482C165.557 26.7538 165.916 26.8066 166.275 26.8066C166.845 26.8066 167.384 26.701 167.891 26.4898C168.419 26.2575 168.873 25.9618 169.253 25.6028C169.633 25.2226 169.939 24.7896 170.172 24.3039C170.404 23.8181 170.52 23.3007 170.52 22.7515Z" fill="white"/>
<path d="M177.155 13.691H180.482V15.6868H180.672C181.094 15.011 181.738 14.4302 182.604 13.9444C183.47 13.4375 184.505 13.1841 185.709 13.1841C186.702 13.1841 187.642 13.3953 188.529 13.8177C189.437 14.219 190.229 14.7892 190.905 15.5284C191.58 16.2676 192.119 17.1441 192.52 18.1579C192.922 19.1505 193.122 20.2488 193.122 21.4526C193.122 22.6565 192.922 23.7653 192.52 24.7791C192.119 25.7717 191.58 26.6377 190.905 27.3769C190.229 28.1161 189.437 28.6969 188.529 29.1193C187.642 29.5206 186.702 29.7212 185.709 29.7212C184.505 29.7212 183.47 29.4783 182.604 28.9926C181.738 28.4857 181.094 27.8943 180.672 27.2185H180.482L180.672 29.3727V36.0573H177.155V13.691ZM185.044 26.4581C185.635 26.4581 186.205 26.342 186.754 26.1096C187.325 25.8773 187.81 25.55 188.212 25.1276C188.634 24.684 188.972 24.156 189.226 23.5435C189.479 22.9311 189.606 22.2341 189.606 21.4526C189.606 20.6712 189.479 19.9742 189.226 19.3617C188.972 18.7493 188.634 18.2318 188.212 17.8094C187.81 17.3659 187.325 17.028 186.754 16.7956C186.205 16.5633 185.635 16.4472 185.044 16.4472C184.431 16.4472 183.85 16.5633 183.301 16.7956C182.752 17.028 182.266 17.3553 181.844 17.7777C181.443 18.2001 181.115 18.7281 180.862 19.3617C180.608 19.9742 180.482 20.6712 180.482 21.4526C180.482 22.2341 180.608 22.9416 180.862 23.5752C181.115 24.1877 181.443 24.7052 181.844 25.1276C182.266 25.55 182.752 25.8773 183.301 26.1096C183.85 26.342 184.431 26.4581 185.044 26.4581Z" fill="white"/>
<path fill-rule="evenodd" clip-rule="evenodd" d="M195.882 13.691V29.2143H199.398V13.691H195.882Z" fill="white"/>
<ellipse cx="197.639" cy="8.55368" rx="2.36502" ry="2.36722" fill="#FECB32"/>
</svg>
