<svg width="346" height="94" viewBox="0 0 346 94" fill="none" xmlns="http://www.w3.org/2000/svg">
<g filter="url(#filter0_d_12_655)">
<rect x="18" y="18" width="296" height="44" rx="22" fill="#ED3237" shape-rendering="crispEdges"/>
<path d="M50.2553 50.28C48.818 50.28 47.4833 50.028 46.2513 49.524C45.0193 49.0013 43.9367 48.2827 43.0033 47.368C42.0887 46.4347 41.3793 45.352 40.8753 44.12C40.39 42.888 40.1473 41.5627 40.1473 40.144C40.1473 38.7253 40.39 37.4 40.8753 36.168C41.3793 34.936 42.0887 33.8627 43.0033 32.948C43.9367 32.0333 45.01 31.3147 46.2233 30.792C47.4553 30.2693 48.7993 30.008 50.2553 30.008C51.8233 30.008 53.2047 30.2693 54.3993 30.792C55.594 31.296 56.6487 31.996 57.5633 32.892L54.9873 35.468C54.446 34.8707 53.7833 34.404 52.9993 34.068C52.2153 33.732 51.3007 33.564 50.2553 33.564C49.3407 33.564 48.5007 33.7227 47.7353 34.04C46.9887 34.3387 46.3353 34.7867 45.7753 35.384C45.2153 35.9627 44.786 36.6627 44.4873 37.484C44.1887 38.2867 44.0393 39.1733 44.0393 40.144C44.0393 41.1333 44.1887 42.0293 44.4873 42.832C44.786 43.6347 45.2153 44.3347 45.7753 44.932C46.3353 45.5107 46.9887 45.9587 47.7353 46.276C48.5007 46.5933 49.3407 46.752 50.2553 46.752C51.3567 46.752 52.2993 46.584 53.0833 46.248C53.886 45.912 54.558 45.436 55.0993 44.82L57.6753 47.396C56.7607 48.3107 55.6967 49.02 54.4833 49.524C53.27 50.028 51.8607 50.28 50.2553 50.28ZM65.9312 50.28C64.5685 50.28 63.3365 49.972 62.2352 49.356C61.1525 48.7213 60.2845 47.872 59.6312 46.808C58.9965 45.7253 58.6792 44.5213 58.6792 43.196C58.6792 41.8707 58.9965 40.6853 59.6312 39.64C60.2658 38.576 61.1338 37.736 62.2352 37.12C63.3365 36.4853 64.5592 36.168 65.9032 36.168C67.2845 36.168 68.5165 36.4853 69.5992 37.12C70.7005 37.736 71.5685 38.576 72.2032 39.64C72.8378 40.6853 73.1552 41.8707 73.1552 43.196C73.1552 44.5213 72.8378 45.7253 72.2032 46.808C71.5685 47.872 70.7005 48.7213 69.5992 49.356C68.5165 49.972 67.2938 50.28 65.9312 50.28ZM65.9032 46.864C66.5938 46.864 67.2005 46.7147 67.7232 46.416C68.2645 46.0987 68.6752 45.6693 68.9552 45.128C69.2538 44.568 69.4032 43.9333 69.4032 43.224C69.4032 42.5147 69.2538 41.8893 68.9552 41.348C68.6565 40.8067 68.2458 40.3867 67.7232 40.088C67.2005 39.7707 66.5938 39.612 65.9032 39.612C65.2312 39.612 64.6338 39.7707 64.1112 40.088C63.5885 40.3867 63.1778 40.8067 62.8792 41.348C62.5805 41.8893 62.4312 42.5147 62.4312 43.224C62.4312 43.9333 62.5805 44.568 62.8792 45.128C63.1778 45.6693 63.5885 46.0987 64.1112 46.416C64.6338 46.7147 65.2312 46.864 65.9032 46.864ZM75.5166 50V36.476H79.1846V50H75.5166ZM84.3366 50V42.02C84.3366 41.236 84.0846 40.6293 83.5806 40.2C83.0952 39.752 82.4886 39.528 81.7606 39.528C81.2752 39.528 80.8366 39.6307 80.4446 39.836C80.0526 40.0227 79.7446 40.3027 79.5206 40.676C79.2966 41.0493 79.1846 41.4973 79.1846 42.02L77.7566 41.32C77.7566 40.2747 77.9806 39.3693 78.4286 38.604C78.8952 37.8387 79.5206 37.2507 80.3046 36.84C81.0886 36.4107 81.9752 36.196 82.9646 36.196C83.8979 36.196 84.7472 36.4107 85.5126 36.84C86.2779 37.2507 86.8846 37.8387 87.3326 38.604C87.7806 39.3507 88.0046 40.256 88.0046 41.32V50H84.3366ZM93.1566 50V42.02C93.1566 41.236 92.9046 40.6293 92.4006 40.2C91.9152 39.752 91.3086 39.528 90.5806 39.528C90.1139 39.528 89.6752 39.6307 89.2646 39.836C88.8726 40.0227 88.5646 40.3027 88.3406 40.676C88.1166 41.0493 88.0046 41.4973 88.0046 42.02L85.9046 41.516C85.9792 40.4333 86.2686 39.5 86.7726 38.716C87.2766 37.9133 87.9392 37.2973 88.7606 36.868C89.5819 36.42 90.4966 36.196 91.5046 36.196C92.5126 36.196 93.4179 36.4107 94.2206 36.84C95.0232 37.2507 95.6579 37.848 96.1246 38.632C96.5912 39.416 96.8246 40.3493 96.8246 41.432V50H93.1566ZM99.7978 50V36.476H103.466V50H99.7978ZM108.618 50V42.02C108.618 41.236 108.366 40.6293 107.862 40.2C107.376 39.752 106.77 39.528 106.042 39.528C105.556 39.528 105.118 39.6307 104.726 39.836C104.334 40.0227 104.026 40.3027 103.802 40.676C103.578 41.0493 103.466 41.4973 103.466 42.02L102.038 41.32C102.038 40.2747 102.262 39.3693 102.71 38.604C103.176 37.8387 103.802 37.2507 104.586 36.84C105.37 36.4107 106.256 36.196 107.246 36.196C108.179 36.196 109.028 36.4107 109.794 36.84C110.559 37.2507 111.166 37.8387 111.614 38.604C112.062 39.3507 112.286 40.256 112.286 41.32V50H108.618ZM117.438 50V42.02C117.438 41.236 117.186 40.6293 116.682 40.2C116.196 39.752 115.59 39.528 114.862 39.528C114.395 39.528 113.956 39.6307 113.546 39.836C113.154 40.0227 112.846 40.3027 112.622 40.676C112.398 41.0493 112.286 41.4973 112.286 42.02L110.186 41.516C110.26 40.4333 110.55 39.5 111.054 38.716C111.558 37.9133 112.22 37.2973 113.042 36.868C113.863 36.42 114.778 36.196 115.786 36.196C116.794 36.196 117.699 36.4107 118.502 36.84C119.304 37.2507 119.939 37.848 120.406 38.632C120.872 39.416 121.106 40.3493 121.106 41.432V50H117.438ZM130.547 50.28C129.128 50.28 127.868 49.9813 126.767 49.384C125.666 48.768 124.788 47.928 124.135 46.864C123.5 45.8 123.183 44.5867 123.183 43.224C123.183 41.88 123.491 40.6853 124.107 39.64C124.742 38.576 125.6 37.736 126.683 37.12C127.766 36.4853 128.97 36.168 130.295 36.168C131.602 36.168 132.75 36.4667 133.739 37.064C134.747 37.6427 135.531 38.4453 136.091 39.472C136.67 40.48 136.959 41.628 136.959 42.916C136.959 43.1587 136.94 43.4107 136.903 43.672C136.884 43.9147 136.838 44.1947 136.763 44.512L125.395 44.54V41.796L135.055 41.768L133.571 42.916C133.534 42.1133 133.384 41.4413 133.123 40.9C132.88 40.3587 132.516 39.948 132.031 39.668C131.564 39.3693 130.986 39.22 130.295 39.22C129.567 39.22 128.932 39.388 128.391 39.724C127.85 40.0413 127.43 40.4987 127.131 41.096C126.851 41.6747 126.711 42.3653 126.711 43.168C126.711 43.9893 126.86 44.708 127.159 45.324C127.476 45.9213 127.924 46.388 128.503 46.724C129.082 47.0413 129.754 47.2 130.519 47.2C131.21 47.2 131.835 47.088 132.395 46.864C132.955 46.6213 133.44 46.2667 133.851 45.8L136.007 47.956C135.354 48.7213 134.551 49.3 133.599 49.692C132.666 50.084 131.648 50.28 130.547 50.28ZM139.228 50V36.476H142.896V50H139.228ZM142.896 42.524L141.468 41.572C141.636 39.9107 142.121 38.604 142.924 37.652C143.726 36.6813 144.884 36.196 146.396 36.196C147.049 36.196 147.637 36.308 148.16 36.532C148.682 36.7373 149.158 37.0827 149.588 37.568L147.292 40.2C147.086 39.976 146.834 39.808 146.536 39.696C146.256 39.584 145.929 39.528 145.556 39.528C144.772 39.528 144.128 39.78 143.624 40.284C143.138 40.7693 142.896 41.516 142.896 42.524ZM156.877 50.28C155.496 50.28 154.254 49.972 153.153 49.356C152.052 48.74 151.184 47.9 150.549 46.836C149.914 45.772 149.597 44.5773 149.597 43.252C149.597 41.908 149.914 40.704 150.549 39.64C151.184 38.576 152.052 37.736 153.153 37.12C154.273 36.4853 155.514 36.168 156.877 36.168C157.941 36.168 158.921 36.364 159.817 36.756C160.713 37.148 161.488 37.708 162.141 38.436L159.789 40.816C159.434 40.424 159.005 40.1253 158.501 39.92C158.016 39.7147 157.474 39.612 156.877 39.612C156.205 39.612 155.598 39.7707 155.057 40.088C154.534 40.3867 154.114 40.8067 153.797 41.348C153.498 41.8707 153.349 42.496 153.349 43.224C153.349 43.9333 153.498 44.568 153.797 45.128C154.114 45.6693 154.534 46.0987 155.057 46.416C155.598 46.7147 156.205 46.864 156.877 46.864C157.493 46.864 158.044 46.7613 158.529 46.556C159.033 46.332 159.462 46.0147 159.817 45.604L162.197 47.984C161.506 48.7307 160.713 49.3 159.817 49.692C158.921 50.084 157.941 50.28 156.877 50.28ZM164.274 50V36.476H167.97V50H164.274ZM166.122 34.292C165.525 34.292 165.03 34.096 164.638 33.704C164.246 33.2933 164.05 32.7893 164.05 32.192C164.05 31.6133 164.246 31.1187 164.638 30.708C165.03 30.2973 165.525 30.092 166.122 30.092C166.738 30.092 167.233 30.2973 167.606 30.708C167.998 31.1187 168.194 31.6133 168.194 32.192C168.194 32.7893 167.998 33.2933 167.606 33.704C167.233 34.096 166.738 34.292 166.122 34.292ZM176.876 50.28C175.644 50.28 174.533 49.972 173.544 49.356C172.554 48.74 171.78 47.9 171.22 46.836C170.66 45.772 170.38 44.5773 170.38 43.252C170.38 41.908 170.66 40.704 171.22 39.64C171.78 38.576 172.554 37.736 173.544 37.12C174.533 36.504 175.644 36.196 176.876 36.196C177.846 36.196 178.714 36.392 179.48 36.784C180.245 37.176 180.852 37.7267 181.3 38.436C181.766 39.1267 182.018 39.9107 182.056 40.788V45.66C182.018 46.556 181.766 47.3493 181.3 48.04C180.852 48.7307 180.245 49.2813 179.48 49.692C178.714 50.084 177.846 50.28 176.876 50.28ZM177.548 46.892C178.574 46.892 179.405 46.556 180.04 45.884C180.674 45.1933 180.992 44.3067 180.992 43.224C180.992 42.5147 180.842 41.8893 180.544 41.348C180.264 40.788 179.862 40.3587 179.34 40.06C178.836 39.7427 178.238 39.584 177.548 39.584C176.876 39.584 176.278 39.7427 175.756 40.06C175.252 40.3587 174.85 40.788 174.552 41.348C174.272 41.8893 174.132 42.5147 174.132 43.224C174.132 43.952 174.272 44.596 174.552 45.156C174.85 45.6973 175.252 46.1267 175.756 46.444C176.278 46.7427 176.876 46.892 177.548 46.892ZM180.796 50V46.36L181.384 43.056L180.796 39.808V36.476H184.436V50H180.796ZM187.681 50V29.756H191.349V50H187.681ZM200.459 50V30.316H204.267V50H200.459ZM203.259 50V46.612H213.283V50H203.259ZM215.626 50V36.476H219.322V50H215.626ZM217.474 34.292C216.877 34.292 216.382 34.096 215.99 33.704C215.598 33.2933 215.402 32.7893 215.402 32.192C215.402 31.6133 215.598 31.1187 215.99 30.708C216.382 30.2973 216.877 30.092 217.474 30.092C218.09 30.092 218.585 30.2973 218.958 30.708C219.35 31.1187 219.546 31.6133 219.546 32.192C219.546 32.7893 219.35 33.2933 218.958 33.704C218.585 34.096 218.09 34.292 217.474 34.292ZM228.955 50.28C227.574 50.28 226.333 49.972 225.231 49.356C224.13 48.74 223.262 47.9 222.627 46.836C221.993 45.772 221.675 44.5773 221.675 43.252C221.675 41.908 221.993 40.704 222.627 39.64C223.262 38.576 224.13 37.736 225.231 37.12C226.351 36.4853 227.593 36.168 228.955 36.168C230.019 36.168 230.999 36.364 231.895 36.756C232.791 37.148 233.566 37.708 234.219 38.436L231.867 40.816C231.513 40.424 231.083 40.1253 230.579 39.92C230.094 39.7147 229.553 39.612 228.955 39.612C228.283 39.612 227.677 39.7707 227.135 40.088C226.613 40.3867 226.193 40.8067 225.875 41.348C225.577 41.8707 225.427 42.496 225.427 43.224C225.427 43.9333 225.577 44.568 225.875 45.128C226.193 45.6693 226.613 46.0987 227.135 46.416C227.677 46.7147 228.283 46.864 228.955 46.864C229.571 46.864 230.122 46.7613 230.607 46.556C231.111 46.332 231.541 46.0147 231.895 45.604L234.275 47.984C233.585 48.7307 232.791 49.3 231.895 49.692C230.999 50.084 230.019 50.28 228.955 50.28ZM242.52 50.28C241.101 50.28 239.841 49.9813 238.74 49.384C237.638 48.768 236.761 47.928 236.108 46.864C235.473 45.8 235.156 44.5867 235.156 43.224C235.156 41.88 235.464 40.6853 236.08 39.64C236.714 38.576 237.573 37.736 238.656 37.12C239.738 36.4853 240.942 36.168 242.268 36.168C243.574 36.168 244.722 36.4667 245.712 37.064C246.72 37.6427 247.504 38.4453 248.064 39.472C248.642 40.48 248.932 41.628 248.932 42.916C248.932 43.1587 248.913 43.4107 248.876 43.672C248.857 43.9147 248.81 44.1947 248.736 44.512L237.368 44.54V41.796L247.028 41.768L245.544 42.916C245.506 42.1133 245.357 41.4413 245.096 40.9C244.853 40.3587 244.489 39.948 244.004 39.668C243.537 39.3693 242.958 39.22 242.268 39.22C241.54 39.22 240.905 39.388 240.364 39.724C239.822 40.0413 239.402 40.4987 239.104 41.096C238.824 41.6747 238.684 42.3653 238.684 43.168C238.684 43.9893 238.833 44.708 239.132 45.324C239.449 45.9213 239.897 46.388 240.476 46.724C241.054 47.0413 241.726 47.2 242.492 47.2C243.182 47.2 243.808 47.088 244.368 46.864C244.928 46.6213 245.413 46.2667 245.824 45.8L247.98 47.956C247.326 48.7213 246.524 49.3 245.572 49.692C244.638 50.084 243.621 50.28 242.52 50.28ZM260.3 50V42.244C260.3 41.4413 260.048 40.788 259.544 40.284C259.04 39.78 258.387 39.528 257.584 39.528C257.062 39.528 256.595 39.64 256.184 39.864C255.774 40.088 255.447 40.4053 255.204 40.816C254.98 41.2267 254.868 41.7027 254.868 42.244L253.44 41.516C253.44 40.452 253.664 39.528 254.112 38.744C254.579 37.9413 255.214 37.316 256.016 36.868C256.838 36.42 257.762 36.196 258.788 36.196C259.778 36.196 260.664 36.448 261.448 36.952C262.232 37.4373 262.848 38.0813 263.296 38.884C263.744 39.668 263.968 40.5173 263.968 41.432V50H260.3ZM251.2 50V36.476H254.868V50H251.2ZM271.571 50.308C270.805 50.308 270.049 50.2053 269.303 50C268.575 49.7947 267.903 49.5147 267.287 49.16C266.671 48.7867 266.139 48.3387 265.691 47.816L267.875 45.604C268.341 46.1267 268.883 46.5187 269.499 46.78C270.115 47.0413 270.796 47.172 271.543 47.172C272.14 47.172 272.588 47.088 272.887 46.92C273.204 46.752 273.363 46.5 273.363 46.164C273.363 45.7907 273.195 45.5013 272.859 45.296C272.541 45.0907 272.121 44.9227 271.599 44.792C271.076 44.6427 270.525 44.484 269.947 44.316C269.387 44.1293 268.845 43.896 268.323 43.616C267.8 43.3173 267.371 42.916 267.035 42.412C266.717 41.8893 266.559 41.2173 266.559 40.396C266.559 39.5373 266.764 38.7907 267.175 38.156C267.604 37.5213 268.211 37.0267 268.995 36.672C269.779 36.3173 270.703 36.14 271.767 36.14C272.887 36.14 273.895 36.336 274.791 36.728C275.705 37.12 276.461 37.708 277.059 38.492L274.847 40.704C274.436 40.2 273.969 39.836 273.447 39.612C272.943 39.388 272.392 39.276 271.795 39.276C271.253 39.276 270.833 39.36 270.535 39.528C270.255 39.696 270.115 39.9293 270.115 40.228C270.115 40.564 270.273 40.8253 270.591 41.012C270.927 41.1987 271.356 41.3667 271.879 41.516C272.401 41.6467 272.943 41.8053 273.503 41.992C274.081 42.16 274.623 42.4027 275.127 42.72C275.649 43.0373 276.069 43.4573 276.387 43.98C276.723 44.5027 276.891 45.1747 276.891 45.996C276.891 47.3213 276.415 48.376 275.463 49.16C274.511 49.9253 273.213 50.308 271.571 50.308ZM285.832 50.28C284.414 50.28 283.154 49.9813 282.052 49.384C280.951 48.768 280.074 47.928 279.42 46.864C278.786 45.8 278.468 44.5867 278.468 43.224C278.468 41.88 278.776 40.6853 279.392 39.64C280.027 38.576 280.886 37.736 281.968 37.12C283.051 36.4853 284.255 36.168 285.58 36.168C286.887 36.168 288.035 36.4667 289.024 37.064C290.032 37.6427 290.816 38.4453 291.376 39.472C291.955 40.48 292.244 41.628 292.244 42.916C292.244 43.1587 292.226 43.4107 292.188 43.672C292.17 43.9147 292.123 44.1947 292.048 44.512L280.68 44.54V41.796L290.34 41.768L288.856 42.916C288.819 42.1133 288.67 41.4413 288.408 40.9C288.166 40.3587 287.802 39.948 287.316 39.668C286.85 39.3693 286.271 39.22 285.58 39.22C284.852 39.22 284.218 39.388 283.676 39.724C283.135 40.0413 282.715 40.4987 282.416 41.096C282.136 41.6747 281.996 42.3653 281.996 43.168C281.996 43.9893 282.146 44.708 282.444 45.324C282.762 45.9213 283.21 46.388 283.788 46.724C284.367 47.0413 285.039 47.2 285.804 47.2C286.495 47.2 287.12 47.088 287.68 46.864C288.24 46.6213 288.726 46.2667 289.136 45.8L291.292 47.956C290.639 48.7213 289.836 49.3 288.884 49.692C287.951 50.084 286.934 50.28 285.832 50.28Z" fill="white"/>
</g>
<defs>
<filter id="filter0_d_12_655" x="0" y="0" width="346" height="94" filterUnits="userSpaceOnUse" color-interpolation-filters="sRGB">
<feFlood flood-opacity="0" result="BackgroundImageFix"/>
<feColorMatrix in="SourceAlpha" type="matrix" values="0 0 0 0 0 0 0 0 0 0 0 0 0 0 0 0 0 0 127 0" result="hardAlpha"/>
<feOffset dx="7" dy="7"/>
<feGaussianBlur stdDeviation="12.5"/>
<feComposite in2="hardAlpha" operator="out"/>
<feColorMatrix type="matrix" values="0 0 0 0 0 0 0 0 0 0 0 0 0 0 0 0 0 0 0.1 0"/>
<feBlend mode="normal" in2="BackgroundImageFix" result="effect1_dropShadow_12_655"/>
<feBlend mode="normal" in="SourceGraphic" in2="effect1_dropShadow_12_655" result="shape"/>
</filter>
</defs>
</svg>
